<svg width="86" height="72" viewBox="0 0 86 72" fill="none" xmlns="http://www.w3.org/2000/svg">
<path d="M74 14.4499C50.5636 14.4499 27.2195 14.4499 3.69077 14.4499C3.69077 14.8066 3.69077 15.0742 3.69077 15.3418C3.69077 23.9929 3.69077 32.644 3.69077 41.2059C3.69077 44.595 5.7207 46.5571 9.13467 46.5571C17.6234 46.5571 37.1846 46.7355 45.6733 46.8247C46.0424 46.8247 46.5038 46.8247 46.8728 46.9139C47.7033 47.1814 48.1646 47.8949 48.0723 48.6976C47.9801 49.5003 47.3342 50.2138 46.4115 50.303C46.227 50.303 45.9501 50.303 45.6733 50.303C37.0923 50.303 17.4389 50.1246 8.85786 50.0354C4.33666 50.0354 0.922692 47.2706 0.092268 43.0788C-1.40929e-06 42.3653 0 41.6519 0 41.0276C0 32.0197 0 22.9226 0 13.9148C0 11.9527 0 9.99055 0 8.02844C0.184539 3.65829 3.78304 0.269194 8.21197 0.0908203C8.48878 0.0908203 8.76559 0.0908203 8.95013 0.0908203C28.788 0.0908203 48.626 0.0908203 68.4639 0.0908203C72.3392 0.0908203 75.1995 1.69618 76.7681 5.08528C77.3217 6.15552 77.5063 7.49332 77.5063 8.74194C77.5985 14.6283 77.5063 29.9684 77.5063 35.8547C77.5063 37.1925 76.8604 37.906 75.8454 37.9952C74.6459 38.0844 73.8155 37.2817 73.8155 35.9439C73.8155 33.1791 73.8155 21.0497 73.8155 18.2849C74 17.0363 74 15.7877 74 14.4499ZM74 10.7932C74 9.99055 74 9.18787 74 8.38519C73.9078 5.6204 71.7856 3.65829 69.0175 3.65829C48.9028 3.65829 28.8803 3.65829 8.76559 3.65829C6.27432 3.65829 4.33666 5.17447 3.87531 7.49332C3.69077 8.56356 3.78304 9.63381 3.69077 10.7932C27.1272 10.7932 50.5636 10.7932 74 10.7932Z" fill="#14320A"/>
<path d="M64.7734 32.2871C76.0302 32.2871 85.0726 41.1166 85.0726 51.9974C85.0726 62.8782 75.938 71.6185 64.6811 71.6185C53.4242 71.6185 44.3818 62.789 44.3818 51.9082C44.4741 41.0274 53.5165 32.2871 64.7734 32.2871ZM81.3819 51.9082C81.3819 42.9895 73.908 35.8546 64.7734 35.8546C55.5464 35.8546 48.1649 43.0787 48.1649 51.9082C48.1649 60.8269 55.6387 67.9619 64.7734 67.9619C73.908 68.051 81.3819 60.8269 81.3819 51.9082Z" fill="#6C9A31"/>
<path d="M16.7006 37.6382C19.0073 37.6382 21.314 37.6382 23.6208 37.6382C25.0048 37.6382 25.8352 38.2625 25.9275 39.4219C25.9275 40.4922 25.0971 41.2057 23.713 41.2057C19.0073 41.2057 14.2093 41.2057 9.50355 41.2057C8.58086 41.2057 7.93497 40.8489 7.56589 40.0463C7.28909 39.3327 7.38135 38.5301 8.11951 38.0841C8.48859 37.8166 9.13447 37.6382 9.59582 37.6382C11.9948 37.6382 14.3016 37.6382 16.7006 37.6382Z" fill="#14320A"/>
<path d="M64.6805 54.8514C66.6181 52.9785 68.3713 51.1947 70.2166 49.5002C70.4934 49.2326 70.7703 48.9651 71.0471 48.7867C71.7852 48.2515 72.8002 48.3407 73.4461 48.9651C73.9997 49.5894 74.0919 50.4812 73.6306 51.1947C73.4461 51.3731 73.2615 51.5515 73.077 51.7299C70.7703 53.9596 68.5558 56.1001 66.2491 58.3298C65.1418 59.4 64.1269 59.4 63.0196 58.3298C61.3588 56.7244 59.6057 55.0298 57.9448 53.4244C57.1144 52.6217 57.0221 51.6407 57.668 50.838C58.4062 49.9461 59.6057 49.9461 60.5284 50.838C62.0047 52.0866 63.2964 53.4244 64.6805 54.8514Z" fill="#6C9A31"/>
</svg>
