<svg width="92" height="71" viewBox="0 0 92 71" fill="none" xmlns="http://www.w3.org/2000/svg">
<path d="M61.0841 40.9923C62.0333 40.9923 68.1082 38.1981 68.1082 35.6743C68.1082 33.1505 62.5079 19.2697 61.0841 19.2697C59.5654 19.2697 54.0601 33.2407 54.0601 35.6743C54.0601 38.108 60.1349 40.9923 61.0841 40.9923Z" stroke="#6C9A31" stroke-width="3" stroke-miterlimit="10" stroke-linejoin="round"/>
<path d="M61.084 30.1768V40.9927" stroke="#6C9A31" stroke-width="3" stroke-miterlimit="10" stroke-linejoin="round"/>
<path d="M38.9677 28.2834C46.5166 28.2834 52.6361 22.4724 52.6361 15.3041C52.6361 8.13577 46.5166 2.32471 38.9677 2.32471C31.4189 2.32471 25.2993 8.13577 25.2993 15.3041C25.2993 22.4724 31.4189 28.2834 38.9677 28.2834Z" stroke="#6C9A31" stroke-width="3" stroke-miterlimit="10" stroke-linejoin="round"/>
<path d="M38.9678 12.6902V41.8936" stroke="#6C9A31" stroke-width="3" stroke-miterlimit="10" stroke-linejoin="round"/>
<path d="M38.9678 22.6957L45.5172 16.476" stroke="#6C9A31" stroke-width="3" stroke-miterlimit="10" stroke-linejoin="round"/>
<path d="M1 44.418C1 44.418 17.2312 36.486 24.0654 36.486C30.8996 36.486 57.3821 47.8432 57.3821 47.8432C57.3821 47.8432 61.9382 51.0881 60.7043 55.0541C59.3754 59.1103 55.3888 58.4793 52.3514 57.6681C49.314 56.8568 33.5573 51.9895 33.5573 51.9895" stroke="#14320A" stroke-width="3" stroke-miterlimit="10" stroke-linejoin="round"/>
<path d="M53.3958 46.0399C53.3958 46.0399 74.5628 37.3868 79.6884 35.3137C84.8141 33.2406 92.6924 36.1249 89.0855 43.426C89.0855 43.426 57.857 69.205 51.0228 69.205C44.1886 69.205 25.3945 59.8308 18.0857 59.8308C10.7769 59.8308 2.3291 67.222 2.3291 67.222" stroke="#14320A" stroke-width="3" stroke-miterlimit="10" stroke-linejoin="round"/>
</svg>
