<svg width="847" height="145" viewBox="0 0 847 145" fill="none" xmlns="http://www.w3.org/2000/svg">
<mask id="mask0_98_1235" style="mask-type:alpha" maskUnits="userSpaceOnUse" x="0" y="0" width="847" height="145">
<path d="M0 0H847V145H0V0Z" fill="#6C9A31"/>
</mask>
<g mask="url(#mask0_98_1235)">
<path d="M713.33 111.885C730.891 124.643 752.044 129.353 772 126.409C768.807 106.782 758.231 88.3332 740.67 75.5758C723.109 62.8184 701.956 58.108 682 61.052C684.993 80.6788 695.769 99.1279 713.33 111.885Z" fill="#8AB357"/>
<path d="M830.018 111.885C812.652 124.643 791.734 129.353 772 126.409C775.157 106.782 785.616 88.3332 802.982 75.5758C820.348 62.8184 841.266 58.108 861 61.052C857.843 80.6788 847.384 99.1279 830.018 111.885Z" fill="#8AB357"/>
<path d="M713.33 59.6089C730.891 72.3802 752.044 77.0958 772 74.1486C768.807 54.5004 758.231 36.0311 740.67 23.2598C723.109 10.4885 701.956 5.96939 682 8.72013C684.993 28.3683 695.769 46.8376 713.33 59.6089Z" fill="#8AB357"/>
<path d="M830.018 59.6257C812.652 72.3831 791.734 77.0935 772 74.1495C775.157 54.5228 785.616 36.0737 802.982 23.3163C820.348 10.5589 841.266 5.8485 861 8.79251C857.843 28.4192 847.384 46.8684 830.018 59.6257Z" fill="#8AB357"/>
<path d="M31.3304 111.885C48.8914 124.643 70.0443 129.353 90 126.409C86.8071 106.782 76.2306 88.3332 58.6696 75.5758C41.1087 62.8184 19.9557 58.108 0 61.052C2.99335 80.6788 13.7694 99.1279 31.3304 111.885Z" fill="#8AB357"/>
<path d="M148.018 111.885C130.652 124.643 109.734 129.353 90 126.409C93.1574 106.782 103.616 88.3332 120.982 75.5758C138.348 62.8184 159.266 58.108 179 61.052C175.843 80.6788 165.384 99.1279 148.018 111.885Z" fill="#8AB357"/>
<path d="M31.3304 59.6089C48.8914 72.3802 70.0443 77.0958 90 74.1486C86.8071 54.5004 76.2306 36.0311 58.6696 23.2598C41.1087 10.4885 19.9557 5.96939 0 8.72013C2.99335 28.3683 13.7694 46.8376 31.3304 59.6089Z" fill="#8AB357"/>
<path d="M31.3304 7.34953C48.8914 20.1208 70.0443 24.8364 90 21.8892C86.8071 2.24101 76.2306 -16.2283 58.6696 -28.9996C41.1087 -41.7709 19.9557 -46.29 0 -43.5393C2.99335 -23.8911 13.7694 -5.42179 31.3304 7.34953Z" fill="#8AB357"/>
<path d="M148.018 59.6257C130.652 72.3831 109.734 77.0935 90 74.1495C93.1574 54.5228 103.616 36.0737 120.982 23.3163C138.348 10.5589 159.266 5.8485 179 8.79251C175.843 28.4192 165.384 46.8684 148.018 59.6257Z" fill="#8AB357"/>
<path d="M148.018 7.36633C130.652 20.1237 109.734 24.8341 90 21.8901C93.1574 2.26339 103.616 -16.1857 120.982 -28.9431C138.348 -41.7005 159.266 -46.4109 179 -43.4669C175.843 -23.8402 165.384 -5.39104 148.018 7.36633Z" fill="#8AB357"/>
</g>
</svg>
