<svg width="338" height="208" viewBox="0 0 338 208" fill="none" xmlns="http://www.w3.org/2000/svg">
<path d="M102.367 100.434C123.878 100.434 141.316 83.0113 141.316 61.5195C141.316 40.0276 123.878 22.605 102.367 22.605C80.856 22.605 63.4179 40.0276 63.4179 61.5195C63.4179 83.0113 80.856 100.434 102.367 100.434Z" stroke="white" stroke-width="5" stroke-linejoin="round"/>
<path d="M102.369 53.7715V145.982" stroke="white" stroke-width="5" stroke-linejoin="round"/>
<path d="M156.809 121.484V146.957" stroke="white" stroke-width="5" stroke-linejoin="round"/>
<path d="M102.369 83.7193L120.911 65.2109" stroke="white" stroke-width="5" stroke-linejoin="round"/>
<path d="M138.859 116.383C135.478 116.38 132.134 117.086 129.042 118.453C125.951 119.821 123.18 121.82 120.909 124.322C123.183 126.821 125.954 128.818 129.045 130.184C132.136 131.55 135.479 132.256 138.859 132.256C142.239 132.256 145.581 131.55 148.673 130.184C151.764 128.818 154.535 126.821 156.808 124.322C154.537 121.82 151.767 119.821 148.675 118.453C145.584 117.086 142.24 116.38 138.859 116.383V116.383Z" stroke="white" stroke-width="5" stroke-linejoin="round"/>
<path d="M174.758 116.383C171.377 116.38 168.033 117.086 164.942 118.453C161.85 119.821 159.08 121.82 156.809 124.322C159.082 126.821 161.853 128.818 164.944 130.184C168.036 131.55 171.378 132.256 174.758 132.256C178.138 132.256 181.481 131.55 184.572 130.184C187.663 128.818 190.434 126.821 192.708 124.322C190.437 121.82 187.666 119.821 184.575 118.453C181.483 117.086 178.139 116.38 174.758 116.383V116.383Z" stroke="white" stroke-width="5" stroke-linejoin="round"/>
<path d="M152.294 106.441C152.293 108.362 152.693 110.262 153.471 112.019C154.248 113.776 155.385 115.352 156.808 116.644C158.231 115.35 159.368 113.773 160.146 112.015C160.924 110.256 161.326 108.355 161.326 106.432C161.326 104.509 160.924 102.608 160.146 100.849C159.368 99.091 158.231 97.5142 156.808 96.2202C155.383 97.5143 154.245 99.0924 153.467 100.853C152.69 102.613 152.29 104.517 152.294 106.441V106.441Z" stroke="white" stroke-width="5" stroke-linejoin="round"/>
<path d="M252.848 3H3.29492V160.26H252.848V3Z" stroke="#6C9A31" stroke-width="5" stroke-linejoin="round"/>
<path d="M38.098 182.756H19.4686V160.26H249.068V182.756H128.178" stroke="#6C9A31" stroke-width="5" stroke-linejoin="round"/>
<path d="M252.85 66.8823H302.012L317.696 115.356C317.696 115.356 335.123 122.599 335.123 129.563V182.738H296.261" stroke="#6C9A31" stroke-width="5" stroke-linejoin="round"/>
<path d="M60.6128 205.251C73.0478 205.251 83.1284 195.18 83.1284 182.756C83.1284 170.332 73.0478 160.26 60.6128 160.26C48.1778 160.26 38.0972 170.332 38.0972 182.756C38.0972 195.18 48.1778 205.251 60.6128 205.251Z" stroke="#6C9A31" stroke-width="5" stroke-linejoin="round"/>
<path d="M60.613 189.72C64.4629 189.72 67.5838 186.602 67.5838 182.755C67.5838 178.909 64.4629 175.791 60.613 175.791C56.7632 175.791 53.6422 178.909 53.6422 182.755C53.6422 186.602 56.7632 189.72 60.613 189.72Z" stroke="#6C9A31" stroke-width="5" stroke-linejoin="round"/>
<path d="M105.661 205.251C118.096 205.251 128.176 195.18 128.176 182.756C128.176 170.332 118.096 160.26 105.661 160.26C93.2255 160.26 83.145 170.332 83.145 182.756C83.145 195.18 93.2255 205.251 105.661 205.251Z" stroke="#6C9A31" stroke-width="5" stroke-linejoin="round"/>
<path d="M105.661 189.72C109.511 189.72 112.632 186.602 112.632 182.755C112.632 178.909 109.511 175.791 105.661 175.791C101.811 175.791 98.69 178.909 98.69 182.755C98.69 186.602 101.811 189.72 105.661 189.72Z" stroke="#6C9A31" stroke-width="5" stroke-linejoin="round"/>
<path d="M273.726 205.251C286.161 205.251 296.242 195.18 296.242 182.756C296.242 170.332 286.161 160.26 273.726 160.26C261.291 160.26 251.21 170.332 251.21 182.756C251.21 195.18 261.291 205.251 273.726 205.251Z" stroke="#6C9A31" stroke-width="5" stroke-linejoin="round"/>
<path d="M273.729 189.72C277.578 189.72 280.699 186.602 280.699 182.755C280.699 178.909 277.578 175.791 273.729 175.791C269.879 175.791 266.758 178.909 266.758 182.755C266.758 186.602 269.879 189.72 273.729 189.72Z" stroke="#6C9A31" stroke-width="5" stroke-linejoin="round"/>
<path d="M308.32 86.4004H273.745V113.458H317.696" stroke="#6C9A31" stroke-width="5" stroke-linejoin="round"/>
<path d="M20.4798 146.958H233.315" stroke="#6C9A31" stroke-width="5" stroke-linejoin="round"/>
</svg>
