<svg width="45" height="44" viewBox="0 0 45 44" fill="none" xmlns="http://www.w3.org/2000/svg">
<path d="M6.47201 30.6398C4.44347 28.79 3.2843 26.2288 3.2843 23.5253C3.2843 18.2131 7.29309 14.0393 13.0889 13.897C14.7311 13.8496 16.4215 14.0867 18.2569 15.0828C20.382 16.2211 21.7827 18.0709 21.7827 18.0709L12.1229 29.5015C12.4127 29.5489 12.7508 29.5489 13.0406 29.5489C13.8617 29.5489 14.6828 29.4066 15.4555 29.0746C16.4698 28.6478 16.8079 28.5055 17.9188 27.1774C20.382 24.2842 26.5159 15.8891 26.5642 15.8416L27.0955 15.1302H32.6981L32.2152 17.2645C31.539 20.1103 30.9111 23.0984 30.4281 25.4699C29.8968 28.1735 29.7519 29.3118 29.7036 29.7861C31.2009 28.126 32.9879 25.2328 33.0362 25.1854V25.1379L41.5851 11.6678C37.9144 4.74301 30.5247 0 21.9759 0C9.85291 0 0 9.67573 0 21.5807C0 26.134 1.44896 30.3552 3.86389 33.8176L6.47201 30.6398Z" fill="white"/>
<path d="M36.1274 27.1307C35.8859 27.5102 34.0022 30.5458 32.3118 32.3956C31.6839 33.1071 30.6696 33.4865 29.6554 33.4865C29.269 33.4865 28.9309 33.4391 28.5445 33.3442C27.2404 32.9648 26.3228 31.9687 26.1296 30.7355C26.033 30.2612 25.8881 29.5023 27.337 22.7671C27.4819 21.9607 27.6751 21.1544 27.82 20.4429C25.7915 23.1939 22.5072 27.5576 20.8167 29.5497C19.2712 31.3521 18.4501 31.8264 17.0011 32.443C15.7937 32.9648 14.4896 33.202 13.1372 33.202C11.9298 33.202 10.7706 33.0122 9.65975 32.5853L6.32715 36.6644C10.3359 40.6961 15.8903 43.21 22.0725 43.21C34.1954 43.21 44.0483 33.534 44.0483 21.6287C44.0483 19.684 43.8068 17.7868 43.2756 15.9844L36.1274 27.1307Z" fill="white"/>
<path d="M6.90674 23.5251C6.90674 25.1852 7.58291 26.7505 8.79037 27.8889L16.8079 18.3548C15.8419 17.7382 14.6344 17.4536 13.0889 17.4536C9.65973 17.501 6.90674 20.2047 6.90674 23.5251Z" fill="white"/>
</svg>
