<svg width="116" height="70" viewBox="0 0 116 70" fill="none" xmlns="http://www.w3.org/2000/svg">
<path d="M35.2925 33.7605C42.5113 33.7605 48.3633 28.0563 48.3633 21.0199C48.3633 13.9835 42.5113 8.2793 35.2925 8.2793C28.0737 8.2793 22.2217 13.9835 22.2217 21.0199C22.2217 28.0563 28.0737 33.7605 35.2925 33.7605Z" stroke="white" stroke-width="3" stroke-miterlimit="10" stroke-linejoin="round"/>
<path d="M35.293 18.5063V48.7297" stroke="white" stroke-width="3" stroke-miterlimit="10" stroke-linejoin="round"/>
<path d="M53.6387 40.7307V49.072" stroke="white" stroke-width="3" stroke-miterlimit="10" stroke-linejoin="round"/>
<path d="M35.293 28.3328L41.5646 22.2197" stroke="white" stroke-width="3" stroke-miterlimit="10" stroke-linejoin="round"/>
<path d="M47.6016 39.0168C45.1985 39.0168 43.0298 40.0452 41.5645 41.6449C43.0298 43.2446 45.1985 44.2729 47.6016 44.2729C50.0048 44.2729 52.1735 43.2446 53.6388 41.6449C52.1148 40.0452 50.0048 39.0168 47.6016 39.0168Z" stroke="white" stroke-width="3" stroke-miterlimit="10" stroke-linejoin="round"/>
<path d="M59.6759 39.0168C57.2727 39.0168 55.104 40.0452 53.6387 41.6449C55.104 43.2446 57.2727 44.2729 59.6759 44.2729C62.079 44.2729 64.2477 43.2446 65.7131 41.6449C64.1891 40.0452 62.079 39.0168 59.6759 39.0168Z" stroke="white" stroke-width="3" stroke-miterlimit="10" stroke-linejoin="round"/>
<path d="M52.1143 35.7601C52.1143 37.0741 52.7004 38.2739 53.6382 39.1309C54.576 38.331 55.1622 37.1313 55.1622 35.7601C55.1622 34.4461 54.576 33.2464 53.6382 32.3894C52.7004 33.2464 52.1143 34.4461 52.1143 35.7601Z" stroke="white" stroke-width="3" stroke-miterlimit="10" stroke-linejoin="round"/>
<path d="M85.9344 1.82324H2V53.4141H85.9344V1.82324Z" stroke="#14320A" stroke-width="3" stroke-miterlimit="10" stroke-linejoin="round"/>
<path d="M13.7228 60.8416H7.45117V53.4143H84.6451V60.8416H43.9673" stroke="#14320A" stroke-width="3" stroke-miterlimit="10" stroke-linejoin="round"/>
<path d="M85.9346 22.791H102.464L107.739 38.6739C107.739 38.6739 113.6 41.0734 113.6 43.3587C113.6 45.644 113.6 60.7842 113.6 60.7842H100.529" stroke="#14320A" stroke-width="3" stroke-miterlimit="10" stroke-linejoin="round"/>
<path d="M21.2838 68.2119C25.4597 68.2119 28.8449 64.9121 28.8449 60.8417C28.8449 56.7712 25.4597 53.4714 21.2838 53.4714C17.1079 53.4714 13.7227 56.7712 13.7227 60.8417C13.7227 64.9121 17.1079 68.2119 21.2838 68.2119Z" stroke="#14320A" stroke-width="3" stroke-miterlimit="10" stroke-linejoin="round"/>
<path d="M21.284 63.127C22.5789 63.127 23.6285 62.1038 23.6285 60.8417C23.6285 59.5796 22.5789 58.5564 21.284 58.5564C19.9891 58.5564 18.9395 59.5796 18.9395 60.8417C18.9395 62.1038 19.9891 63.127 21.284 63.127Z" stroke="#14320A" stroke-width="3" stroke-miterlimit="10" stroke-linejoin="round"/>
<path d="M36.4059 68.2119C40.5818 68.2119 43.967 64.9121 43.967 60.8417C43.967 56.7712 40.5818 53.4714 36.4059 53.4714C32.23 53.4714 28.8447 56.7712 28.8447 60.8417C28.8447 64.9121 32.23 68.2119 36.4059 68.2119Z" stroke="#14320A" stroke-width="3" stroke-miterlimit="10" stroke-linejoin="round"/>
<path d="M36.406 63.127C37.7009 63.127 38.7505 62.1038 38.7505 60.8417C38.7505 59.5796 37.7009 58.5564 36.406 58.5564C35.1112 58.5564 34.0615 59.5796 34.0615 60.8417C34.0615 62.1038 35.1112 63.127 36.406 63.127Z" stroke="#14320A" stroke-width="3" stroke-miterlimit="10" stroke-linejoin="round"/>
<path d="M92.9684 68.2119C97.1443 68.2119 100.53 64.9121 100.53 60.8417C100.53 56.7712 97.1443 53.4714 92.9684 53.4714C88.7925 53.4714 85.4072 56.7712 85.4072 60.8417C85.4072 64.9121 88.7925 68.2119 92.9684 68.2119Z" stroke="#14320A" stroke-width="3" stroke-miterlimit="10" stroke-linejoin="round"/>
<path d="M92.9686 63.127C94.2634 63.127 95.3131 62.1038 95.3131 60.8417C95.3131 59.5796 94.2634 58.5564 92.9686 58.5564C91.6737 58.5564 90.624 59.5796 90.624 60.8417C90.624 62.1038 91.6737 63.127 92.9686 63.127Z" stroke="#14320A" stroke-width="3" stroke-miterlimit="10" stroke-linejoin="round"/>
<path d="M104.573 29.1899H92.9678V38.103H107.738" stroke="#14320A" stroke-width="3" stroke-miterlimit="10" stroke-linejoin="round"/>
<path d="M7.80273 49.0723H79.3698" stroke="#14320A" stroke-width="3" stroke-miterlimit="10" stroke-linejoin="round"/>
</svg>
