<svg width="58" height="75" viewBox="0 0 58 75" fill="none" xmlns="http://www.w3.org/2000/svg">
<path d="M55.8 18.4972C54.3 14.5863 52.2 11.3097 49.5 8.56154C46.8 5.81339 43.8 3.69943 40.3 2.21966C36.9 0.739884 33.2 0 29.3 0C25.5 0 21.8 0.739886 18.3 2.11396C14.8 3.59373 11.7 5.60199 8.9 8.24444C6.2 10.8869 4 14.1635 2.4 17.9687C0.799998 21.7738 0 26.1074 0 30.7581C0 35.3031 0.700001 39.4254 2.2 43.2305C3.7 47.0356 5.7 50.3122 8.4 53.1661C11 55.9142 14 58.1339 17.5 59.6137C20.6 60.9878 24 61.7276 27.6 61.8333C27.5 61.3048 27.5 60.7764 27.5 60.1422C27.5 59.4023 27.7 58.8738 27.9 58.451C24.5 58.3453 21.4 57.6054 18.5 56.337C15.4 54.8573 12.8 52.9547 10.5 50.4179C8.3 47.8812 6.5 44.9216 5.2 41.5393C3.9 38.157 3.3 34.5633 3.3 30.6524C3.3 26.6359 4 23.0422 5.3 19.6598C6.6 16.2775 8.5 13.3179 10.8 10.8869C13.1 8.35014 15.9 6.44758 19 5.1792C22.1 3.80513 25.5 3.17094 29.1 3.17094C32.8 3.17094 36.2 3.91083 39.3 5.2849C42.4 6.76467 45.1 8.66724 47.4 11.204C49.7 13.7407 51.5 16.7003 52.8 20.0826C54.1 23.465 54.7 27.1644 54.7 31.1809C54.7 32.555 54.6 34.1405 54.3 36.043C54.1 37.9456 53.7 39.6368 53.1 41.4336C52.6 43.1248 51.8 44.6046 50.7 45.7672C49.7 46.9299 48.4 47.4584 46.8 47.4584C45.6 47.4584 44.7 47.0356 44.1 46.2957C43.5 45.5558 43.2 44.4989 43 43.2305C42.8 41.8564 42.8 40.4823 42.8 38.7912V28.9613C42.8 27.0587 42.7 25.0504 42.4 23.0422C42.1 21.0339 41.6 19.1313 40.8 17.4402C40 15.749 38.7 14.3749 36.9 13.4236C35.1 12.3667 32.7 11.9439 29.6 11.9439C27.2 11.9439 24.9 12.3667 22.7 13.1066C20.5 13.8464 18.5 14.9034 16.6 16.1718L18.2 20.1883C19.7 19.0256 21.3 18.0744 23.1 17.4402C24.9 16.7003 26.9 16.3832 29 16.3832C31.5 16.3832 33.5 16.9117 34.8 17.9687C36.2 19.0256 37.1 20.5054 37.7 22.3023C38.2 24.2048 38.5 26.3188 38.5 28.7499C37.7 28.4328 36.4 28.01 34.7 27.5872C33 27.1644 31.1 26.8473 28.8 26.8473C26.5 26.8473 24.2 27.1644 21.9 27.9043C19.6 28.6442 17.8 29.8068 16.3 31.498C14.8 33.1892 14.1 35.4088 14.1 38.3684C14.1 41.5393 15.1 44.2875 17.2 46.4014C19.3 48.5154 22.2 49.6781 26 49.6781C28.8 49.6781 31.3 49.1496 33.6 47.9869C35.9 46.8242 37.8 45.4501 39.3 43.759C39.5 44.9217 39.7 46.19 40.1 47.247C40.5 48.4097 41.1 49.2553 42.1 49.9952C43 50.735 44.4 51.0521 46.2 51.0521C48.3 51.0521 50.1 50.5236 51.6 49.4667C53 48.4097 54.2 47.0356 55 45.4501C55.8 43.8647 56.5 42.0678 56.9 40.2709C57.3 38.4741 57.6 36.7829 57.7 35.0917C57.8 33.5063 57.9 32.2379 57.9 31.2866C58.1 26.7416 57.3 22.408 55.8 18.4972ZM38.6 35.7259C38.6 36.6772 38.5 37.6285 38.2 38.5798C38 39.5311 37.5 40.4823 36.8 41.3279C36.1 42.1735 35.1 42.9134 33.7 43.6533C32.7 44.1818 31.6 44.6046 30.3 44.9217C29 45.2388 27.8 45.4501 26.5 45.4501C24.9 45.4501 23.6 45.133 22.4 44.4989C21.2 43.8647 20.3 43.0191 19.7 41.8564C19 40.7994 18.7 39.5311 18.7 38.157C18.7 36.3601 19.2 34.8803 20.1 33.8234C21 32.7664 22.3 32.0265 23.8 31.498C25.3 31.0752 27 30.8638 28.8 30.8638C31.2 30.8638 33.2 31.1809 34.9 31.7094C36.6 32.2379 37.8 32.555 38.5 32.6607V35.7259H38.6Z" fill="white"/>
<path d="M39.9002 74.2C36.8002 74.2 33.8002 73.2487 31.3002 71.3461C27.9002 68.8094 25.6002 64.7929 25.1002 60.4592C25.0002 59.825 25.4002 59.0852 26.1002 58.9795C30.2002 58.0282 34.5002 58.9795 37.9002 61.5162C41.3002 64.053 43.6002 68.0695 44.1002 72.4031C44.2002 73.0373 43.8002 73.7772 43.1002 73.8829C42.1002 74.0943 41.0002 74.2 39.9002 74.2ZM27.9002 61.3048C28.6002 64.4758 30.3002 67.2239 32.8002 69.1265C35.3002 71.029 38.4002 71.7689 41.4002 71.4518C40.7002 68.2809 39.0002 65.5327 36.5002 63.6302C34.0002 61.7276 30.9002 60.882 27.9002 61.3048Z" fill="#14320A"/>
<path d="M28.4997 61.1991C27.6997 61.1991 26.8997 61.0934 26.0997 60.882C25.4997 60.7763 24.9997 60.1421 25.0997 59.4022C25.4997 56.1256 27.1997 53.2718 29.6997 51.3692C32.1997 49.4666 35.3997 48.8324 38.3997 49.5723C38.9997 49.678 39.4997 50.3122 39.3997 51.0521C38.9997 54.3287 37.2997 57.1826 34.7997 59.0852C32.9997 60.4592 30.7997 61.1991 28.4997 61.1991ZM27.8997 58.451C29.7997 58.5567 31.7997 58.0282 33.3997 56.8655C34.9997 55.7028 36.1997 53.9059 36.6997 52.0034C34.7997 51.8977 32.7997 52.4262 31.1997 53.5889C29.5997 54.7515 28.3997 56.5484 27.8997 58.451Z" fill="#14320A"/>
</svg>
