<svg width="1795" height="782" viewBox="0 0 1795 782" fill="none" xmlns="http://www.w3.org/2000/svg">
<path d="M205.602 190.689L338.323 340.281M399.062 153.029L271.338 544.404M396.095 6L491.03 243.416M491.03 243.416L624.219 75.146M491.03 243.416L430.29 482.339M776.77 81.021L588.619 420.574L197.326 573.328M662.474 291.334L851.563 264.367M722.433 165.382L897 140.525M249.79 240.404L311.31 101.809M182.102 142.95L99.9713 311.521M13 171.722L333.404 720.069M1146.6 275.148L1279.32 424.737M1340.06 237.486L1212.34 628.862M1337.1 90.4565L1432.03 327.873M1432.03 327.873L1565.22 159.603M1432.03 327.873L1371.29 566.796M1684.77 165.478L1496.62 505.031L1105.33 657.785M1570.47 371.862L1759.56 344.896M1617.43 287.156L1792 262.301M1190.79 324.861L1252.31 186.268M1055.1 196.963L972.971 365.535M886 225.735L1206.4 774.082" stroke="#8AB357" stroke-width="30" stroke-miterlimit="10"/>
</svg>
