<svg width="1919" height="130" viewBox="0 0 1919 130" fill="none" xmlns="http://www.w3.org/2000/svg">
<mask id="mask0_675_46" style="mask-type:alpha" maskUnits="userSpaceOnUse" x="0" y="0" width="1920" height="130">
<rect width="1920" height="130" fill="#6C9A31"/>
</mask>
<g mask="url(#mask0_675_46)">
<path d="M279.602 -93.0342L412.323 58.6768" stroke="#14320A" stroke-width="30" stroke-miterlimit="10"/>
<path d="M473.062 -131.229L345.338 265.692" stroke="#14320A" stroke-width="30" stroke-miterlimit="10"/>
<path d="M555.029 -39.5615L494.29 202.748" stroke="#14320A" stroke-width="30" stroke-miterlimit="10"/>
<path d="M789.444 -175L601.293 169.365L210 324.283" stroke="#14320A" stroke-width="30" stroke-miterlimit="10"/>
<path d="M256.102 -141.45L173.971 29.5098" stroke="#14320A" stroke-width="30" stroke-miterlimit="10"/>
<path d="M87 -112.271L407.404 443.847" stroke="#14320A" stroke-width="30" stroke-miterlimit="10"/>
<path d="M1220.6 -7.37891L1353.32 144.33" stroke="#14320A" stroke-width="30" stroke-miterlimit="10"/>
<path d="M1414.06 -45.5742L1286.34 351.347" stroke="#14320A" stroke-width="30" stroke-miterlimit="10"/>
<path d="M1411.1 -194.688L1506.03 46.0928" stroke="#14320A" stroke-width="30" stroke-miterlimit="10"/>
<path d="M1639.22 -124.562L1506.03 46.0928" stroke="#14320A" stroke-width="30" stroke-miterlimit="10"/>
<path d="M1506.03 46.0928L1445.29 288.401" stroke="#14320A" stroke-width="30" stroke-miterlimit="10"/>
<path d="M1758.77 -118.604L1570.62 225.761L1179.33 380.68" stroke="#14320A" stroke-width="30" stroke-miterlimit="10"/>
<path d="M1644.47 90.7051L1833.56 63.3574" stroke="#14320A" stroke-width="30" stroke-miterlimit="10"/>
<path d="M1691.43 4.7998L1866 -20.4082" stroke="#14320A" stroke-width="30" stroke-miterlimit="10"/>
<path d="M1264.79 43.0381L1326.31 -97.5186" stroke="#14320A" stroke-width="30" stroke-miterlimit="10"/>
<path d="M1129.1 -86.6719L1046.97 84.2891" stroke="#14320A" stroke-width="30" stroke-miterlimit="10"/>
<path d="M960 -57.4922L1280.4 498.625" stroke="#14320A" stroke-width="30" stroke-miterlimit="10"/>
</g>
</svg>
