<svg width="1920" height="130" viewBox="0 0 1920 130" fill="none" xmlns="http://www.w3.org/2000/svg">
<mask id="mask0_155_232" style="mask-type:alpha" maskUnits="userSpaceOnUse" x="0" y="0" width="1920" height="130">
<rect width="1920" height="130" fill="#6C9A31"/>
</mask>
<g mask="url(#mask0_155_232)">
<path d="M279.602 -124.429L412.323 25.1624" stroke="#8AB357" stroke-width="30" stroke-miterlimit="10"/>
<path d="M473.062 -162.09L345.337 229.285" stroke="#8AB357" stroke-width="30" stroke-miterlimit="10"/>
<path d="M565.03 -71.7034L504.291 167.221" stroke="#8AB357" stroke-width="30" stroke-miterlimit="10"/>
<path d="M850.77 -234.097L662.619 105.456L271.326 258.209" stroke="#8AB357" stroke-width="30" stroke-miterlimit="10"/>
<path d="M256.102 -172.168L173.971 -3.59717" stroke="#8AB357" stroke-width="30" stroke-miterlimit="10"/>
<path d="M87 -143.396L407.404 404.951" stroke="#8AB357" stroke-width="30" stroke-miterlimit="10"/>
<path d="M1220.6 -39.9705L1353.32 109.619" stroke="#8AB357" stroke-width="30" stroke-miterlimit="10"/>
<path d="M1414.06 -77.6321L1286.34 313.743" stroke="#8AB357" stroke-width="30" stroke-miterlimit="10"/>
<path d="M1411.1 -224.662L1506.03 12.7541" stroke="#8AB357" stroke-width="30" stroke-miterlimit="10"/>
<path d="M1639.22 -155.516L1506.03 12.7541" stroke="#8AB357" stroke-width="30" stroke-miterlimit="10"/>
<path d="M1506.03 12.7542L1445.29 251.677" stroke="#8AB357" stroke-width="30" stroke-miterlimit="10"/>
<path d="M1758.77 -149.641L1570.62 189.912L1179.33 342.666" stroke="#8AB357" stroke-width="30" stroke-miterlimit="10"/>
<path d="M1644.47 56.7432L1833.56 29.7776" stroke="#8AB357" stroke-width="30" stroke-miterlimit="10"/>
<path d="M1264.79 9.74218L1326.31 -128.851" stroke="#8AB357" stroke-width="30" stroke-miterlimit="10"/>
<path d="M1129.1 -118.156L1046.97 50.4167" stroke="#8AB357" stroke-width="30" stroke-miterlimit="10"/>
<path d="M960 -89.3835L1280.4 458.963" stroke="#8AB357" stroke-width="30" stroke-miterlimit="10"/>
</g>
</svg>
