<svg width="1919" height="549" viewBox="0 0 1919 549" fill="none" xmlns="http://www.w3.org/2000/svg">
<mask id="mask0_151_285" style="mask-type:alpha" maskUnits="userSpaceOnUse" x="-1" y="0" width="1920" height="549">
<rect x="-1" width="1920" height="549" fill="#E4D1B6"/>
</mask>
<g mask="url(#mask0_151_285)">
<path d="M265.353 62.4702L481.203 233.692" stroke="#FFEDD3" stroke-width="35" stroke-miterlimit="10"/>
<path d="M472.605 -69.439L502.885 833.65" stroke="#FFEDD3" stroke-width="35" stroke-miterlimit="10"/>
<path d="M597.333 143.461L818.543 353.091" stroke="#FFEDD3" stroke-width="35" stroke-miterlimit="10"/>
<path d="M1535 259.879L1647 380.894" stroke="#FFEDD3" stroke-width="35" stroke-miterlimit="10"/>
<path d="M931 61.5921L1104 311.435" stroke="#FFEDD3" stroke-width="35" stroke-miterlimit="10"/>
<path d="M-1 -55.9161L349.207 556.505" stroke="#FFEDD3" stroke-width="35" stroke-miterlimit="10"/>
<path d="M118 440.085L322.698 502.543" stroke="#FFEDD3" stroke-width="35" stroke-miterlimit="10"/>
<path d="M714 -25.3493L909.44 684.317" stroke="#FFEDD3" stroke-width="35" stroke-miterlimit="10"/>
<path d="M1721.19 -42.1118L1585 648.987" stroke="#FFEDD3" stroke-width="35" stroke-miterlimit="10"/>
<path d="M1170.83 118.611L926.207 780.024" stroke="#FFEDD3" stroke-width="35" stroke-miterlimit="10"/>
<path d="M1347 -101.273L1455.35 594.597" stroke="#FFEDD3" stroke-width="35" stroke-miterlimit="10"/>
<path d="M856.471 -14.55L770.221 177.008" stroke="#FFEDD3" stroke-width="35" stroke-miterlimit="10"/>
<path d="M1821 118.611L1664 228.873" stroke="#FFEDD3" stroke-width="35" stroke-miterlimit="10"/>
<path d="M1267 353.285L1071 376.963" stroke="#FFEDD3" stroke-width="35" stroke-miterlimit="10"/>
<path d="M1511.78 71.2814L1397.67 230.191" stroke="#FFEDD3" stroke-width="35" stroke-miterlimit="10"/>
<path d="M490.874 480.76L609.376 301.026" stroke="#FFEDD3" stroke-width="35" stroke-miterlimit="10"/>
<path d="M114.874 137.622L233.376 -42.1118" stroke="#FFEDD3" stroke-width="35" stroke-miterlimit="10"/>
</g>
</svg>
