<svg width="131" height="83" viewBox="0 0 131 83" fill="none" xmlns="http://www.w3.org/2000/svg">
<path d="M66.1029 66.4286C59.5533 74.0375 48.8927 80.678 35.3753 80.678C20.116 80.678 7.1561 72.1698 2 60.1339C7.1561 48.1672 20.116 39.5898 35.3753 39.5898C41.5766 39.5898 47.4295 41.0425 52.5159 43.5326" stroke="#14320A" stroke-width="3" stroke-miterlimit="10" stroke-linejoin="round"/>
<path d="M83.8706 41.5266C87.6331 40.3507 91.6744 39.659 95.9247 39.659C111.184 39.659 124.144 48.1672 129.3 60.2031C124.144 72.1699 111.184 80.7472 95.9247 80.7472C80.6654 80.7472 69.308 71.409 62.5494 60.2723C60.1804 56.2603 59.4836 53.4934 59.4836 53.4934" stroke="#14320A" stroke-width="3" stroke-miterlimit="10" stroke-linejoin="round"/>
<path d="M43.5276 40.6274C43.2489 38.8289 43.1095 36.9613 43.1095 35.0936C43.1095 33.641 43.1792 32.1884 43.3185 30.8049C44.7817 17.5239 52.7946 6.52551 63.7339 1.96014C75.788 7.07888 84.428 19.9449 84.428 35.0936C84.428 42.5642 82.3377 49.4814 78.7841 55.2227" stroke="#14320A" stroke-width="3" stroke-miterlimit="10" stroke-linejoin="round"/>
<path d="M49.8682 33.641L53.7701 44.0168L43.3185 47.8904" stroke="#14320A" stroke-width="3" stroke-miterlimit="10" stroke-linejoin="round"/>
<path d="M88.8873 53.6317L78.0177 56.1911L75.4396 45.4002" stroke="#14320A" stroke-width="3" stroke-miterlimit="10" stroke-linejoin="round"/>
<path d="M54.9546 62.3474L59.4836 52.2482L69.7261 56.7444" stroke="#14320A" stroke-width="3" stroke-miterlimit="10" stroke-linejoin="round"/>
</svg>
