<svg width="56" height="56" viewBox="0 0 56 56" fill="none" xmlns="http://www.w3.org/2000/svg">
<circle cx="28" cy="28" r="28" fill="black"/>
<path d="M43.7142 22.0525L29.4266 10.881C29.0229 10.5618 28.5193 10.3877 28.0001 10.3877C27.4808 10.3877 26.9772 10.5618 26.5735 10.881L12.2859 22.0525C12.197 22.1223 12.1253 22.2106 12.0758 22.3109C12.0264 22.4113 12.0005 22.5212 12.0001 22.6326V39.016C11.997 39.3118 12.0546 39.6053 12.1693 39.8791C12.2841 40.1528 12.4538 40.4014 12.6683 40.6101C13.0984 41.0277 13.6799 41.2625 14.2861 41.2632H41.714C42.3203 41.2632 42.9017 41.0278 43.3304 40.6088C43.7592 40.1898 44 39.6215 44 39.0289V22.6326C43.9996 22.5212 43.9737 22.4113 43.9243 22.3109C43.8748 22.2106 43.8031 22.1223 43.7142 22.0525ZM23.3203 31.2991L13.5256 38.9558V24.1235L23.3203 31.2991ZM26.5779 30.6588C26.982 30.3386 27.4864 30.1638 28.0067 30.1638C28.5269 30.1638 29.0313 30.3386 29.4354 30.6588L41.0633 39.7507H14.9324L26.5779 30.6588ZM32.6886 31.2991L42.4789 24.1235V38.9558L32.6886 31.2991ZM27.5231 12.0454C27.6575 11.9394 27.8251 11.8816 27.9979 11.8816C28.1706 11.8816 28.3382 11.9394 28.4727 12.0454L41.9909 22.6154L31.4401 30.3495L30.363 29.4901C29.689 28.9582 28.8488 28.6681 27.9825 28.6681C27.1162 28.6681 26.276 28.9582 25.6019 29.4901L24.5249 30.3495L13.974 22.6154L27.5231 12.0454Z" fill="#E4D1B6"/>
</svg>
