<svg width="141" height="78" viewBox="0 0 141 78" fill="none" xmlns="http://www.w3.org/2000/svg">
<path d="M15.4726 74.3879L9.04407 76.4926L11.9164 70.4501L5.14589 70.9933L9.4544 65.7655L2.75228 64.6792L8.2234 60.6735L2 58.0256L8.2234 55.3778L2.75228 51.3721L9.4544 50.2858L5.14589 45.1259L11.9164 45.669L9.04407 39.5586L15.4726 41.7312L14.1049 35.1455L19.7811 38.7439L20.0547 32.0224L24.7735 36.8429L26.62 30.393L30.0395 36.2318L33.3905 30.393L35.3054 36.8429L39.9559 32.0224L40.2294 38.7439L45.9741 35.1455L44.6063 41.7312L51.0349 39.5586L48.0942 45.669L54.8647 45.1259L50.5562 50.2858L57.2583 51.3721L51.7872 55.3778L58.079 58.0256L51.7872 60.6735L57.2583 64.6792L50.5562 65.7655L54.8647 70.9933L48.0942 70.4501L51.0349 76.4926L44.6063 74.3879" stroke="#14320A" stroke-width="3" stroke-miterlimit="10" stroke-linejoin="round"/>
<path d="M80.7841 51.9152C94.6836 51.9152 105.951 40.7291 105.951 26.9304C105.951 13.1317 94.6836 1.94568 80.7841 1.94568C66.8847 1.94568 55.6169 13.1317 55.6169 26.9304C55.6169 40.7291 66.8847 51.9152 80.7841 51.9152Z" stroke="#14320A" stroke-width="3" stroke-miterlimit="10" stroke-linejoin="round"/>
<path d="M80.7841 21.9742V76.4926" stroke="#14320A" stroke-width="3" stroke-miterlimit="10" stroke-linejoin="round"/>
<path d="M115.936 62.0313V77.1036" stroke="#14320A" stroke-width="3" stroke-miterlimit="10" stroke-linejoin="round"/>
<path d="M80.7841 41.188L92.7521 29.3067" stroke="#14320A" stroke-width="3" stroke-miterlimit="10" stroke-linejoin="round"/>
<path d="M104.31 62.0991C99.7278 62.0991 95.556 64.068 92.7521 67.1911C95.6244 70.3142 99.7278 72.2831 104.31 72.2831C108.892 72.2831 113.064 70.3142 115.868 67.1911C113.064 64.068 108.892 62.0991 104.31 62.0991Z" stroke="#14320A" stroke-width="3" stroke-miterlimit="10" stroke-linejoin="round"/>
<path d="M127.494 62.0991C122.912 62.0991 118.74 64.068 115.936 67.1911C118.808 70.3142 122.912 72.2831 127.494 72.2831C132.076 72.2831 136.248 70.3142 139.052 67.1911C136.179 64.068 132.076 62.0991 127.494 62.0991Z" stroke="#14320A" stroke-width="3" stroke-miterlimit="10" stroke-linejoin="round"/>
<path d="M112.995 55.7172C112.995 58.2971 114.089 60.6734 115.936 62.2349C117.714 60.6055 118.877 58.2971 118.877 55.7172C118.877 53.1372 117.782 50.7609 115.936 49.1994C114.089 50.7609 112.995 53.0693 112.995 55.7172Z" stroke="#14320A" stroke-width="3" stroke-miterlimit="10" stroke-linejoin="round"/>
</svg>
