<svg width="91" height="91" viewBox="0 0 91 91" fill="none" xmlns="http://www.w3.org/2000/svg">
<path d="M45.7045 0.261719V11.0334" stroke="#14320A" stroke-width="2" stroke-miterlimit="10" stroke-linejoin="round"/>
<path d="M40.2793 5.64752H51.0434" stroke="#14320A" stroke-width="2" stroke-miterlimit="10" stroke-linejoin="round"/>
<path d="M41.8293 1.88605L49.4934 9.40906" stroke="#14320A" stroke-width="2" stroke-miterlimit="10" stroke-linejoin="round"/>
<path d="M41.8293 9.40906L49.4934 1.88605" stroke="#14320A" stroke-width="2" stroke-miterlimit="10" stroke-linejoin="round"/>
<path d="M22.9706 6.33148L28.3956 15.5642" stroke="#14320A" stroke-width="2" stroke-miterlimit="10" stroke-linejoin="round"/>
<path d="M20.9899 13.598L30.3762 8.29773" stroke="#14320A" stroke-width="2" stroke-miterlimit="10" stroke-linejoin="round"/>
<path d="M20.4733 9.58008L30.8929 12.3157" stroke="#14320A" stroke-width="2" stroke-miterlimit="10" stroke-linejoin="round"/>
<path d="M24.2623 16.1627L27.1041 5.81853" stroke="#14320A" stroke-width="2" stroke-miterlimit="10" stroke-linejoin="round"/>
<path d="M6.43677 22.8309L15.7369 28.1312" stroke="#14320A" stroke-width="2" stroke-miterlimit="10" stroke-linejoin="round"/>
<path d="M8.3313 30.0974L13.7565 20.8646" stroke="#14320A" stroke-width="2" stroke-miterlimit="10" stroke-linejoin="round"/>
<path d="M5.83398 26.8488L16.2537 24.1132" stroke="#14320A" stroke-width="2" stroke-miterlimit="10" stroke-linejoin="round"/>
<path d="M12.4647 30.6104L9.70908 20.3516" stroke="#14320A" stroke-width="2" stroke-miterlimit="10" stroke-linejoin="round"/>
<path d="M0.322754 45.3145H11.0869" stroke="#14320A" stroke-width="2" stroke-miterlimit="10" stroke-linejoin="round"/>
<path d="M5.66174 50.7003V40.0141" stroke="#14320A" stroke-width="2" stroke-miterlimit="10" stroke-linejoin="round"/>
<path d="M1.87268 49.076L9.53674 41.553" stroke="#14320A" stroke-width="2" stroke-miterlimit="10" stroke-linejoin="round"/>
<path d="M9.53674 49.076L1.87268 41.553" stroke="#14320A" stroke-width="2" stroke-miterlimit="10" stroke-linejoin="round"/>
<path d="M6.43677 67.798L15.7369 62.4977" stroke="#14320A" stroke-width="2" stroke-miterlimit="10" stroke-linejoin="round"/>
<path d="M13.7565 69.7643L8.3313 60.5315" stroke="#14320A" stroke-width="2" stroke-miterlimit="10" stroke-linejoin="round"/>
<path d="M9.70908 70.3627L12.4647 60.0186" stroke="#14320A" stroke-width="2" stroke-miterlimit="10" stroke-linejoin="round"/>
<path d="M16.2537 66.5157L5.83398 63.7801" stroke="#14320A" stroke-width="2" stroke-miterlimit="10" stroke-linejoin="round"/>
<path d="M22.9706 84.2974L28.3956 75.0646" stroke="#14320A" stroke-width="2" stroke-miterlimit="10" stroke-linejoin="round"/>
<path d="M30.3762 82.3312L20.9899 77.0309" stroke="#14320A" stroke-width="2" stroke-miterlimit="10" stroke-linejoin="round"/>
<path d="M27.1041 84.8959L24.2623 74.5517" stroke="#14320A" stroke-width="2" stroke-miterlimit="10" stroke-linejoin="round"/>
<path d="M30.8929 78.3132L20.4733 81.0488" stroke="#14320A" stroke-width="2" stroke-miterlimit="10" stroke-linejoin="round"/>
<path d="M45.7045 90.3671V79.681" stroke="#14320A" stroke-width="2" stroke-miterlimit="10" stroke-linejoin="round"/>
<path d="M51.0434 84.9814H40.2793" stroke="#14320A" stroke-width="2" stroke-miterlimit="10" stroke-linejoin="round"/>
<path d="M49.4934 88.8284L41.8293 81.2198" stroke="#14320A" stroke-width="2" stroke-miterlimit="10" stroke-linejoin="round"/>
<path d="M49.4934 81.2198L41.8293 88.8284" stroke="#14320A" stroke-width="2" stroke-miterlimit="10" stroke-linejoin="round"/>
<path d="M68.3522 84.2974L63.0132 75.0646" stroke="#14320A" stroke-width="2" stroke-miterlimit="10" stroke-linejoin="round"/>
<path d="M70.3329 77.0309L61.0326 82.3312" stroke="#14320A" stroke-width="2" stroke-miterlimit="10" stroke-linejoin="round"/>
<path d="M70.8495 81.0488L60.4298 78.3132" stroke="#14320A" stroke-width="2" stroke-miterlimit="10" stroke-linejoin="round"/>
<path d="M67.0605 74.5517L64.3049 84.8959" stroke="#14320A" stroke-width="2" stroke-miterlimit="10" stroke-linejoin="round"/>
<path d="M84.972 67.798L75.6719 62.4977" stroke="#14320A" stroke-width="2" stroke-miterlimit="10" stroke-linejoin="round"/>
<path d="M82.9915 60.5315L77.5663 69.7643" stroke="#14320A" stroke-width="2" stroke-miterlimit="10" stroke-linejoin="round"/>
<path d="M85.4886 63.7801L75.069 66.5157" stroke="#14320A" stroke-width="2" stroke-miterlimit="10" stroke-linejoin="round"/>
<path d="M78.858 60.0186L81.6996 70.3627" stroke="#14320A" stroke-width="2" stroke-miterlimit="10" stroke-linejoin="round"/>
<path d="M91 45.3145H80.2358" stroke="#14320A" stroke-width="2" stroke-miterlimit="10" stroke-linejoin="round"/>
<path d="M85.661 40.0141V50.7003" stroke="#14320A" stroke-width="2" stroke-miterlimit="10" stroke-linejoin="round"/>
<path d="M89.45 41.553L81.8719 49.076" stroke="#14320A" stroke-width="2" stroke-miterlimit="10" stroke-linejoin="round"/>
<path d="M81.8719 41.553L89.45 49.076" stroke="#14320A" stroke-width="2" stroke-miterlimit="10" stroke-linejoin="round"/>
<path d="M84.972 22.8309L75.6719 28.1312" stroke="#14320A" stroke-width="2" stroke-miterlimit="10" stroke-linejoin="round"/>
<path d="M77.5663 20.8646L82.9915 30.0974" stroke="#14320A" stroke-width="2" stroke-miterlimit="10" stroke-linejoin="round"/>
<path d="M81.6996 20.3516L78.858 30.6104" stroke="#14320A" stroke-width="2" stroke-miterlimit="10" stroke-linejoin="round"/>
<path d="M75.069 24.1132L85.4886 26.8488" stroke="#14320A" stroke-width="2" stroke-miterlimit="10" stroke-linejoin="round"/>
<path d="M68.3522 6.33148L63.0132 15.5642" stroke="#14320A" stroke-width="2" stroke-miterlimit="10" stroke-linejoin="round"/>
<path d="M61.0326 8.29773L70.3329 13.598" stroke="#14320A" stroke-width="2" stroke-miterlimit="10" stroke-linejoin="round"/>
<path d="M64.3049 5.81853L67.0605 16.1627" stroke="#14320A" stroke-width="2" stroke-miterlimit="10" stroke-linejoin="round"/>
<path d="M60.4298 12.3157L70.8495 9.58008" stroke="#14320A" stroke-width="2" stroke-miterlimit="10" stroke-linejoin="round"/>
</svg>
