<svg width="56" height="56" viewBox="0 0 56 56" fill="none" xmlns="http://www.w3.org/2000/svg">
<circle cx="28" cy="28" r="28" fill="black"/>
<path d="M44.9905 36.1045C44.9187 35.7605 44.7748 35.436 44.5683 35.1528C44.3619 34.8696 44.0977 34.6343 43.7935 34.4626L37.0585 29.8051C36.6759 29.5483 36.2254 29.4137 35.7658 29.4188C35.4121 29.4177 35.0633 29.5013 34.7479 29.6627C34.4325 29.824 34.1596 30.0586 33.9517 30.3471L32.2014 32.8475C32.123 32.9597 32.057 33.0803 32.0046 33.207C31.8578 33.2397 31.708 33.2559 31.5577 33.2553C30.6108 33.2553 28.9722 32.7187 26.557 30.3095C23.5778 27.3208 22.2159 25.1262 22.4181 23.7258C22.5136 23.6752 22.6045 23.6159 22.6894 23.5487L25.1099 21.7029C25.5729 21.3353 25.8757 20.8003 25.9541 20.2113C26.0326 19.6223 25.8805 19.0257 25.5302 18.5479L20.6944 11.8944C20.5119 11.5946 20.2688 11.3369 19.981 11.1382C19.6932 10.9394 19.3671 10.804 19.0239 10.7408C18.6856 10.7253 18.3478 10.7819 18.0325 10.9067C17.7173 11.0314 17.4315 11.2217 17.1939 11.4651C16.2099 12.4063 15.3579 13.4787 14.6616 14.6524C14.377 15.138 14.2452 15.6993 14.2839 16.2621C13.877 18.273 13.9078 20.3491 14.3743 22.3468C15.2681 26.5643 17.6727 30.61 21.519 34.3714C27.9455 40.6868 33.6165 41.6097 36.4254 41.6097C37.5607 41.6416 38.6919 41.4596 39.761 41.0731C40.2922 41.0652 40.8117 40.9153 41.2666 40.6385C42.4011 39.9058 43.4303 39.0193 44.3255 38.004C44.5648 37.7539 44.7481 37.4549 44.8628 37.1272C44.9775 36.7994 45.0211 36.4507 44.9905 36.1045ZM15.8426 16.2138C15.8091 15.9383 15.8711 15.6596 16.0182 15.425C16.6268 14.415 17.3616 13.488 18.2047 12.6671C18.3651 12.4882 18.5807 12.3692 18.8165 12.329C19.0725 12.4175 19.288 12.5967 19.4229 12.8334L24.2588 19.4815C24.3683 19.6223 24.4196 19.8004 24.4017 19.9785C24.3839 20.1566 24.2983 20.3208 24.163 20.4366L21.7371 22.2931C21.6908 22.3255 21.6382 22.3474 21.5828 22.3575L21.1732 22.4434L21.0242 22.8405C20.2582 24.917 21.6201 27.5569 25.4345 31.3988C28.2327 34.248 30.3075 34.8167 31.5577 34.8167C32.0734 34.8315 32.5842 34.7133 33.042 34.4733L33.3771 34.2802L33.4356 33.8992C33.4424 33.8433 33.4625 33.7899 33.4942 33.7436L35.2444 31.2485C35.3575 31.1132 35.5161 31.0247 35.6898 30.9999C35.8635 30.9752 36.0402 31.0159 36.186 31.1144L42.937 35.7718C43.1802 35.8827 43.371 36.0848 43.469 36.3352C43.4537 36.5881 43.3411 36.8249 43.1551 36.9952V36.9952C42.3734 37.8748 41.4789 38.6453 40.4952 39.2864C40.2697 39.4389 39.9999 39.5107 39.7291 39.4903H39.4897L39.2822 39.6029C38.3767 39.9362 37.4152 40.0875 36.452 40.0483C33.8825 40.0483 28.669 39.1683 22.6202 33.2714C14.0019 24.8311 15.5979 17.3567 15.8267 16.5411L15.8692 16.3855L15.8426 16.2138Z" fill="#E4D1B6"/>
</svg>
