<svg width="201" height="43" viewBox="0 0 201 43" fill="none" xmlns="http://www.w3.org/2000/svg">
<path d="M0 12.9566C9.77187 12.9566 14.9452 2.19574 14.9452 2.19574H15.6021V42.9564" stroke="#14320A" stroke-width="3" stroke-miterlimit="10" stroke-linejoin="round"/>
<path d="M29.9725 41.0814V23.5543C29.9725 12.6305 39.0053 3.66315 50.009 3.66315H69.6348V21.1902C69.6348 32.114 60.602 41.0814 49.5984 41.0814H29.9725Z" stroke="#14320A" stroke-width="3" stroke-miterlimit="10" stroke-linejoin="round"/>
<path d="M29.9725 41.0814L52.2261 18.9892" stroke="#14320A" stroke-width="3" stroke-miterlimit="10" stroke-linejoin="round"/>
<path d="M77.6001 41.0814V23.5543C77.6001 12.6305 86.6329 3.66315 97.6365 3.66315H117.262V21.1902C117.262 32.114 108.23 41.0814 97.2259 41.0814H77.6001Z" stroke="#14320A" stroke-width="3" stroke-miterlimit="10" stroke-linejoin="round"/>
<path d="M77.6001 41.0814L99.8536 18.9892" stroke="#14320A" stroke-width="3" stroke-miterlimit="10" stroke-linejoin="round"/>
<path d="M125.228 41.0814V23.5543C125.228 12.6305 134.26 3.66315 145.264 3.66315H164.89V21.1902C164.89 32.114 155.857 41.0814 144.854 41.0814H125.228Z" stroke="#14320A" stroke-width="3" stroke-miterlimit="10" stroke-linejoin="round"/>
<path d="M125.228 41.0814L147.481 18.9892" stroke="#14320A" stroke-width="3" stroke-miterlimit="10" stroke-linejoin="round"/>
<path d="M175.894 19.3968H200.2" stroke="#14320A" stroke-width="3" stroke-miterlimit="10" stroke-linejoin="round"/>
<path d="M188.047 31.4619V7.3316" stroke="#14320A" stroke-width="3" stroke-miterlimit="10" stroke-linejoin="round"/>
</svg>
