<svg width="42" height="72" viewBox="0 0 42 72" fill="none" xmlns="http://www.w3.org/2000/svg">
<path d="M20.9458 62.7329L38.0133 29.5908C39.2382 27.0223 39.8915 24.2052 39.8915 21.2224C39.8915 10.6169 31.3986 2 20.9458 2C10.4929 2 2 10.6169 2 21.2224C2 24.2052 2.6533 27.1051 3.87824 29.5908L20.9458 62.7329Z" stroke="white" stroke-width="3" stroke-miterlimit="10" stroke-linejoin="round"/>
<path d="M20.9461 29.0938C25.6366 29.0938 29.439 25.2357 29.439 20.4766C29.439 15.7174 25.6366 11.8594 20.9461 11.8594C16.2555 11.8594 12.4531 15.7174 12.4531 20.4766C12.4531 25.2357 16.2555 29.0938 20.9461 29.0938Z" stroke="#14320A" stroke-width="3" stroke-miterlimit="10" stroke-linejoin="round"/>
<path d="M22.8238 59.0874C31.97 59.4188 39.0747 61.8217 39.0747 64.7218C39.0747 67.8704 30.9084 70.439 20.9456 70.439C10.9827 70.439 2.81641 67.8704 2.81641 64.7218C2.81641 61.8217 9.67609 59.4188 18.4957 59.0874" stroke="white" stroke-width="3" stroke-miterlimit="10" stroke-linejoin="round"/>
<path d="M20.9453 41.2734V21.8022" stroke="#14320A" stroke-width="3" stroke-miterlimit="10" stroke-linejoin="round"/>
<path d="M14.6582 32.8228L20.9463 36.9648" stroke="#14320A" stroke-width="3" stroke-miterlimit="10" stroke-linejoin="round"/>
</svg>
