<svg width="310" height="60" viewBox="0 0 310 60" fill="none" xmlns="http://www.w3.org/2000/svg">
<path d="M102.716 25.5522C103.998 25.5522 105.137 25.7972 106.17 26.3221C107.202 26.847 108.021 27.5818 108.626 28.5616C109.232 29.5414 109.552 30.5912 109.552 31.7809C109.552 32.9007 109.267 33.9505 108.662 34.9303C108.057 35.9101 107.274 36.6449 106.241 37.1698C105.209 37.6947 104.034 37.9746 102.752 37.9746C101.47 37.9746 100.331 37.6947 99.2628 37.1698C98.2302 36.6099 97.4114 35.8751 96.8061 34.9303C96.2364 33.9855 95.916 32.9357 95.916 31.7809C95.916 30.6612 96.2008 29.6114 96.8061 28.6316C97.3758 27.6518 98.1946 26.882 99.2271 26.3571C100.188 25.8322 101.363 25.5522 102.716 25.5522ZM98.3371 31.7809C98.3371 32.5858 98.5151 33.3206 98.9067 33.9505C99.2628 34.5803 99.7968 35.1052 100.473 35.4552C101.15 35.8051 101.897 35.98 102.716 35.98C103.998 35.98 105.031 35.5951 105.849 34.8253C106.668 34.0554 107.06 33.0407 107.06 31.8159C107.06 31.0111 106.882 30.2762 106.49 29.6464C106.134 29.0165 105.6 28.4916 104.924 28.1417C104.247 27.7918 103.5 27.6168 102.681 27.6168C101.862 27.6168 101.079 27.7918 100.438 28.1417C99.7612 28.4916 99.2628 28.9815 98.9067 29.6464C98.5151 30.2413 98.3371 30.9761 98.3371 31.7809Z" fill="#382100"/>
<path d="M119.521 25.7272V27.5468H114.109V30.4512H116.673C117.563 30.4512 118.346 30.5911 119.058 30.9061C119.735 31.221 120.269 31.6409 120.66 32.2008C121.016 32.7607 121.23 33.3905 121.23 34.0904C121.23 35.2102 120.838 36.12 120.019 36.7848C119.201 37.4497 118.132 37.7996 116.815 37.7996H111.724V25.7272H119.521ZM116.424 36.015C117.136 36.015 117.67 35.84 118.097 35.4901C118.524 35.1402 118.738 34.6853 118.738 34.1254C118.738 33.5655 118.524 33.1106 118.097 32.7607C117.67 32.4457 117.1 32.2708 116.352 32.2708H114.145V36.015H116.424Z" fill="#382100"/>
<path d="M144.586 25.7272V27.5468H138.996V30.7311H144.337V32.5507H138.996V35.98H144.693V37.7996H136.611V25.7272H144.586Z" fill="#382100"/>
<path d="M177.092 25.7272V30.8361H183.501V25.7272H185.886V37.8346H183.501V32.7257H177.092V37.8346H174.707V25.7272H177.092Z" fill="#382100"/>
<path d="M196.567 25.7272V27.5468H190.977V30.7311H196.318V32.5507H190.977V35.98H196.674V37.7996H188.592V25.7272H196.567Z" fill="#382100"/>
<path d="M201.302 25.7272V30.8361H207.711V25.7272H210.097V37.8346H207.711V32.7257H201.302V37.8346H198.917V25.7272H201.302Z" fill="#382100"/>
<path d="M215.223 25.7272V30.8361H221.632V25.7272H224.017V37.8346H221.632V32.7257H215.223V37.8346H212.838V25.7272H215.223Z" fill="#382100"/>
<path d="M248.904 25.7276V37.835H246.519V32.971H246.021C245.237 32.971 244.596 33.181 244.062 33.5659C243.528 33.9508 243.03 34.5807 242.603 35.4555L241.321 37.835H238.579L239.968 35.3505C240.395 34.5457 240.822 33.9158 241.25 33.4259C241.677 32.936 242.14 32.5861 242.638 32.3411C240.858 31.8163 239.968 30.8015 239.968 29.2618C239.968 28.142 240.36 27.2672 241.178 26.6374C241.962 26.0075 243.065 25.6926 244.383 25.6926H248.904V25.7276ZM242.425 29.3318C242.425 29.8917 242.638 30.3466 243.03 30.6615C243.457 31.0114 244.027 31.1514 244.739 31.1514H246.519V27.5122H244.739C243.991 27.5122 243.421 27.6871 243.03 28.0021C242.638 28.317 242.425 28.7719 242.425 29.3318Z" fill="#382100"/>
<path d="M106.597 47.0377V48.8573H102.218V59.1451H99.8324V48.8573H95.4531V47.0377H106.597Z" fill="#382100"/>
<path d="M114.216 46.8977C115.498 46.8977 116.637 47.1427 117.67 47.6675C118.702 48.1924 119.521 48.9273 120.127 49.9071C120.732 50.8869 121.052 51.9366 121.052 53.1264C121.052 54.2461 120.767 55.2959 120.162 56.2757C119.557 57.2555 118.774 57.9903 117.741 58.5152C116.709 59.0401 115.534 59.3201 114.252 59.3201C112.97 59.3201 111.831 59.0401 110.763 58.5152C109.73 57.9553 108.911 57.2205 108.306 56.2757C107.736 55.3309 107.416 54.2811 107.416 53.1264C107.416 52.0066 107.701 50.9568 108.306 49.9771C108.876 48.9973 109.695 48.2274 110.727 47.7025C111.688 47.1776 112.863 46.8977 114.216 46.8977ZM109.837 53.1264C109.837 53.9312 110.015 54.6661 110.407 55.2959C110.763 55.9258 111.297 56.4507 111.973 56.8006C112.65 57.1505 113.397 57.3255 114.216 57.3255C115.498 57.3255 116.531 56.9406 117.349 56.1707C118.168 55.4009 118.56 54.3861 118.56 53.1614C118.56 52.3565 118.382 51.6217 117.99 50.9918C117.634 50.362 117.1 49.8371 116.424 49.4872C115.747 49.1372 115 48.9623 114.181 48.9623C113.362 48.9623 112.579 49.1372 111.938 49.4872C111.261 49.8371 110.763 50.327 110.407 50.9918C110.015 51.5867 109.837 52.3216 109.837 53.1264Z" fill="#382100"/>
<path d="M127.995 47.0377C129.134 47.0377 130.095 47.3526 130.807 48.0174C131.52 48.6823 131.876 49.5221 131.876 50.5719C131.876 51.6217 131.52 52.4615 130.772 53.1264C130.024 53.7912 129.063 54.1062 127.888 54.1062H125.609V59.1801H123.224V47.0726H127.995V47.0377ZM127.425 52.2516C128.066 52.2516 128.564 52.1116 128.92 51.8316C129.276 51.5517 129.455 51.1318 129.455 50.5719C129.455 49.4521 128.707 48.8923 127.247 48.8923H125.609V52.2516H127.425Z" fill="#382100"/>
<path d="M148.93 46.8977C150.211 46.8977 151.351 47.1427 152.383 47.6675C153.416 48.1924 154.235 48.9273 154.84 49.9071C155.445 50.8869 155.766 51.9366 155.766 53.1264C155.766 54.2461 155.481 55.2959 154.875 56.2757C154.27 57.2555 153.487 57.9903 152.454 58.5152C151.422 59.0401 150.247 59.3201 148.965 59.3201C147.684 59.3201 146.544 59.0401 145.476 58.5152C144.444 57.9553 143.625 57.2205 143.019 56.2757C142.45 55.3309 142.129 54.2811 142.129 53.1264C142.129 52.0066 142.414 50.9568 143.019 49.9771C143.589 48.9973 144.408 48.2274 145.441 47.7025C146.437 47.1776 147.612 46.8977 148.93 46.8977ZM144.586 53.1264C144.586 53.9312 144.764 54.6661 145.156 55.2959C145.512 55.9258 146.046 56.4507 146.722 56.8006C147.399 57.1505 148.146 57.3255 148.965 57.3255C150.247 57.3255 151.28 56.9406 152.098 56.1707C152.917 55.4009 153.309 54.3861 153.309 53.1614C153.309 52.3565 153.131 51.6217 152.739 50.9918C152.383 50.362 151.849 49.8371 151.173 49.4872C150.496 49.1372 149.749 48.9623 148.93 48.9623C148.111 48.9623 147.328 49.1372 146.687 49.4872C146.01 49.8371 145.512 50.327 145.156 50.9918C144.764 51.5867 144.586 52.3216 144.586 53.1264Z" fill="#382100"/>
<path d="M162.495 47.0377C163.634 47.0377 164.56 47.3176 165.272 47.9125C165.984 48.5073 166.34 49.2072 166.34 50.082C166.34 50.6419 166.197 51.1318 165.877 51.5517C165.592 51.9716 165.165 52.3215 164.595 52.5665V52.6715C165.45 52.8464 166.126 53.2313 166.589 53.7912C167.052 54.3511 167.301 55.016 167.301 55.7858C167.301 56.4507 167.123 57.0455 166.767 57.5704C166.411 58.0953 165.948 58.4802 165.307 58.7602C164.702 59.0401 163.954 59.1451 163.1 59.1451H157.973V47.0377H162.495ZM161.854 52.0766C162.495 52.0766 162.993 51.9366 163.349 51.6217C163.705 51.3417 163.883 50.9218 163.883 50.3969C163.883 49.942 163.705 49.5571 163.385 49.2772C163.064 48.9972 162.601 48.8573 162.067 48.8573H160.358V52.0766H161.854ZM162.423 57.3605C163.242 57.3605 163.847 57.2205 164.239 56.9056C164.666 56.5906 164.844 56.1707 164.844 55.5758C164.844 55.051 164.631 54.666 164.239 54.3511C163.847 54.0362 163.278 53.8962 162.601 53.8962H160.358V57.3255H162.423V57.3605Z" fill="#382100"/>
<path d="M191.547 47.0376V59.1451H189.162V54.2811H188.663C187.88 54.2811 187.239 54.4911 186.705 54.876C186.171 55.2609 185.673 55.8908 185.245 56.7656L183.964 59.1451H181.222L182.611 56.6606C183.038 55.8558 183.465 55.2259 183.892 54.736C184.32 54.2461 184.783 53.8962 185.281 53.6512C183.501 53.1264 182.611 52.1116 182.611 50.5719C182.611 49.4521 183.002 48.5773 183.821 47.9475C184.604 47.3176 185.708 47.0027 187.026 47.0027H191.547V47.0376ZM185.032 50.6419C185.032 51.2018 185.245 51.6567 185.637 51.9716C186.064 52.3215 186.634 52.4615 187.346 52.4615H189.126V48.8223H187.346C186.598 48.8223 186.029 48.9972 185.637 49.3122C185.245 49.6621 185.032 50.082 185.032 50.6419Z" fill="#382100"/>
<path d="M206.643 47.0377V51.9016H206.75C207.284 51.9016 207.676 51.7966 207.96 51.6567C208.245 51.5167 208.494 51.2718 208.744 50.9218C208.993 50.6069 209.242 50.152 209.456 49.5921C209.776 48.8573 210.097 48.2974 210.381 47.9825C210.666 47.6675 211.022 47.4226 211.414 47.2476C211.806 47.1076 212.34 47.0377 212.945 47.0377C213.158 47.0377 213.372 47.0377 213.55 47.0726V48.9273C213.052 48.9273 212.696 48.9622 212.482 49.0672C212.268 49.1372 212.055 49.3122 211.877 49.5221C211.699 49.7321 211.485 50.117 211.271 50.6769C210.809 51.7617 210.203 52.4615 209.456 52.7414C210.025 52.9864 210.559 53.3713 211.022 53.8612C211.485 54.3861 211.984 55.1209 212.518 56.1007L214.191 59.1451H211.556L210.025 56.3107C209.669 55.6458 209.313 55.1209 208.993 54.736C208.672 54.3511 208.352 54.0712 207.996 53.9312C207.64 53.7562 207.177 53.6862 206.607 53.6862V59.1801H204.258V47.0726H206.643V47.0377Z" fill="#382100"/>
<path d="M221.846 46.8977C223.127 46.8977 224.267 47.1427 225.299 47.6675C226.332 48.1924 227.151 48.9273 227.756 49.9071C228.361 50.8869 228.682 51.9366 228.682 53.1264C228.682 54.2461 228.397 55.2959 227.791 56.2757C227.186 57.2555 226.403 57.9903 225.37 58.5152C224.338 59.0401 223.163 59.3201 221.881 59.3201C220.6 59.3201 219.46 59.0401 218.392 58.5152C217.36 57.9553 216.541 57.2205 215.935 56.2757C215.366 55.3309 215.045 54.2811 215.045 53.1264C215.045 52.0066 215.33 50.9568 215.935 49.9771C216.505 48.9973 217.324 48.2274 218.357 47.7025C219.318 47.1776 220.493 46.8977 221.846 46.8977ZM217.466 53.1264C217.466 53.9312 217.644 54.6661 218.036 55.2959C218.392 55.9258 218.926 56.4507 219.603 56.8006C220.279 57.1505 221.027 57.3255 221.846 57.3255C223.127 57.3255 224.16 56.9406 224.979 56.1707C225.798 55.4009 226.189 54.3861 226.189 53.1614C226.189 52.3565 226.011 51.6217 225.62 50.9918C225.264 50.362 224.73 49.8371 224.053 49.4872C223.377 49.1372 222.629 48.9623 221.81 48.9623C220.991 48.9623 220.208 49.1372 219.567 49.4872C218.891 49.8371 218.392 50.327 218.036 50.9918C217.644 51.5867 217.466 52.3216 217.466 53.1264Z" fill="#382100"/>
<path d="M257.236 47.0377V59.1451H254.815V48.9273H248.335V59.1451H245.949V47.0377H257.236Z" fill="#382100"/>
<path d="M275.5 47.0377V52.1466H281.909V47.0377H284.294V59.1451H281.909V54.0362H275.5V59.1451H273.115V47.0377H275.5Z" fill="#382100"/>
<path d="M289.314 47.0377V55.5059L296.969 47.0377H298.215V59.1451H295.865V51.4467L288.709 59.2501H287V47.0377H289.314Z" fill="#382100"/>
<path d="M163.456 25.6926V34.1608L171.111 25.6926H172.357V37.8H170.007V30.1016L162.851 37.905H161.142V25.6926H163.456Z" fill="#382100"/>
<path d="M310 47.0376V59.1451H307.614V54.2811H307.116C306.333 54.2811 305.692 54.4911 305.158 54.876C304.624 55.2609 304.125 55.8908 303.698 56.7656L302.416 59.1451H299.675L301.063 56.6606C301.491 55.8558 301.918 55.2259 302.345 54.736C302.772 54.2461 303.235 53.8962 303.734 53.6512C301.953 53.1264 301.063 52.1116 301.063 50.5719C301.063 49.4521 301.455 48.5773 302.274 47.9475C303.057 47.3176 304.161 47.0027 305.478 47.0027H310V47.0376ZM303.52 50.6419C303.52 51.2018 303.734 51.6567 304.125 51.9716C304.553 52.3215 305.122 52.4615 305.834 52.4615H307.614V48.8223H305.834C305.087 48.8223 304.517 48.9972 304.125 49.3122C303.734 49.6621 303.52 50.082 303.52 50.6419Z" fill="#382100"/>
<path d="M133.513 31.466C132.694 30.8011 131.591 30.4512 130.202 30.4512H128.28V29.0515C128.28 27.0919 126.606 25.6222 124.399 25.6222H121.978V28.0367H124.399C125.253 28.0367 125.823 28.4566 125.823 29.0515V37.7296V37.8346H130.309C131.662 37.8346 132.73 37.4847 133.549 36.8198C134.368 36.155 134.759 35.2452 134.759 34.1604C134.759 33.0406 134.332 32.1308 133.513 31.466ZM131.769 35.5251C131.413 35.875 130.95 36.05 130.345 36.05H128.28V32.2708H130.309C130.914 32.2708 131.377 32.4457 131.769 32.7957C132.125 33.1456 132.303 33.6005 132.303 34.1604C132.303 34.7203 132.125 35.1752 131.769 35.5251Z" fill="#382100"/>
<path d="M135.97 59.1451H133.513V50.4669C133.513 48.5073 135.187 47.0377 137.394 47.0377H141.31V49.4521H137.394C136.539 49.4521 135.97 49.8721 135.97 50.4669V59.1451Z" fill="#382100"/>
<path d="M157.724 35.9094H156.94V28.071V25.6566H154.591H152.169C149.962 25.6566 148.289 27.1262 148.289 29.0858V35.9094H147.256H145.868V40.0735H148.218V37.869H156.798V40.0735H159.148V35.9094H157.724ZM152.169 28.071H154.591V35.9094H150.745V29.0858C150.745 28.491 151.315 28.071 152.169 28.071Z" fill="#382100"/>
<path d="M231.423 25.5522C228.717 25.5522 226.51 27.9667 226.51 30.9411V37.8346H228.682V34.1254H234.165V37.8346H236.336V30.9411C236.336 27.9667 234.129 25.5522 231.423 25.5522ZM228.717 32.2358V30.9411C228.717 29.1215 229.928 27.6868 231.459 27.6868C232.954 27.6868 234.2 29.1565 234.2 30.9411V32.2358H228.717Z" fill="#382100"/>
<path d="M174.529 47.0027C171.823 47.0027 169.615 49.4171 169.615 52.3915V59.285H171.787V55.5758H177.27V59.285H179.442V52.3915C179.406 49.4171 177.234 47.0027 174.529 47.0027ZM171.787 53.6862V52.3915C171.787 50.5719 172.998 49.1372 174.529 49.1372C176.059 49.1372 177.27 50.6069 177.27 52.3915V53.6862H171.787Z" fill="#382100"/>
<path d="M265.033 47.0027C262.327 47.0027 260.12 49.4171 260.12 52.3915V59.285H262.291V55.5758H267.774V59.285H269.946V52.3915C269.911 49.4171 267.703 47.0027 265.033 47.0027ZM262.291 53.6862V52.3915C262.291 50.5719 263.502 49.1372 265.033 49.1372C266.564 49.1372 267.774 50.6069 267.774 52.3915V53.6862H262.291Z" fill="#382100"/>
<path d="M241.107 46.9327C239.541 47.0027 238.152 48.9273 237.191 49.9771C236.194 48.8573 234.663 46.9327 232.99 46.9327H230.854V59.1801H233.239V50.572V49.4522C234.734 49.5572 235.909 51.9017 235.909 53.2314L235.945 54.5611H238.437L238.473 53.2314C238.473 51.9717 239.505 49.7321 240.822 49.4872V50.572V59.1801H243.208V46.9327H241.107Z" fill="#382100"/>
<path d="M78.5058 45.6031C76.4764 42.9436 73.7705 41.124 70.5306 40.2142C71.9547 39.3744 73.3077 38.3246 74.5182 37.0999C78.0429 33.5306 80.0723 28.8766 80.0723 24.2926H76.3696C76.3696 27.9318 74.7318 31.676 71.8835 34.5454C69.3913 37.0649 66.2938 38.6046 63.0182 39.0595V23.9777H55.6839C49.6313 23.9777 45.5013 25.6923 43.6143 26.7071C41.7273 25.7273 37.5973 23.9777 31.5803 23.9777H17.4813V24.0127C7.79717 24.2576 0 32.0609 0 41.6489C0 51.3768 8.0464 59.3202 17.9798 59.3202C27.9132 59.3202 35.9596 51.4118 35.9596 41.6489C35.9596 36.0151 33.2537 31.0112 29.0881 27.7919H31.6159C36.7428 27.7919 40.232 29.2265 41.7273 29.9964V58.4803H45.6081V29.9964C47.1035 29.2265 50.5926 27.7919 55.7195 27.7919H59.1731V58.4803H63.0538V43.5385H65.5817C69.7829 43.5385 73.0584 45.0432 75.3015 47.9826C77.3309 50.642 78.4346 54.3512 78.4346 58.4803H82.4578C82.4578 53.5114 81.0692 48.9274 78.5058 45.6031ZM32.0432 41.6839C32.0432 49.3123 25.7413 55.541 17.9442 55.541C10.147 55.541 3.84518 49.3473 3.84518 41.6839C3.84518 34.0205 10.147 27.8268 17.9442 27.8268C25.7413 27.8268 32.0432 34.0555 32.0432 41.6839Z" fill="#382100"/>
<path d="M32.8266 21.4232C35.8529 23.3828 39.5913 24.6075 42.5463 24.6075H44.3265C47.2816 24.6075 51.02 23.3828 54.0463 21.4232C57.5354 19.1487 59.7785 15.8244 59.8853 12.7101L59.9565 10.8904L58.1051 10.7505C55.8265 10.5755 52.3729 10.9254 49.3822 11.7653C48.5989 7.98606 45.4302 3.61199 45.0386 3.0871L43.5076 0.987549L41.9411 3.05211C41.5494 3.577 38.2739 7.91608 37.5618 11.7303C34.5711 10.8904 31.1532 10.5755 28.8746 10.7155L27.0232 10.8555L27.0944 12.6751C27.13 15.8244 29.3374 19.1487 32.8266 21.4232ZM51.9101 18.2389C50.7708 18.9737 49.6315 19.5336 48.5277 19.9185C49.0262 18.6938 49.3822 17.2591 49.5246 15.7194C51.3048 15.0896 53.5122 14.7046 55.3992 14.5647C54.794 15.7894 53.6547 17.1191 51.9101 18.2389ZM41.2646 12.92C41.3714 11.3803 42.4039 9.35078 43.4364 7.70612C44.4333 9.38577 45.4658 11.4503 45.6439 12.99C45.9999 16.0694 45.0742 19.3587 43.5076 20.7933C41.229 18.3089 41.1222 14.8446 41.2646 12.92ZM37.4194 15.7194C37.5618 17.2241 37.9179 18.6588 38.4875 19.9535C37.3838 19.5686 36.1733 18.9737 34.9984 18.2389C33.2894 17.1191 32.1145 15.7894 31.5092 14.5647C33.3962 14.7046 35.6393 15.0896 37.4194 15.7194Z" fill="#382100"/>
</svg>
