<svg width="310" height="59" viewBox="0 0 310 59" fill="none" xmlns="http://www.w3.org/2000/svg">
<path d="M102.716 24.4655C103.998 24.4655 105.137 24.7095 106.17 25.2323C107.202 25.7551 108.021 26.4869 108.626 27.4628C109.232 28.4387 109.552 29.4842 109.552 30.6692C109.552 31.7845 109.267 32.8301 108.662 33.8059C108.057 34.7818 107.274 35.5137 106.241 36.0365C105.209 36.5593 104.034 36.8381 102.752 36.8381C101.47 36.8381 100.331 36.5593 99.2627 36.0365C98.2302 35.4788 97.4114 34.7469 96.8061 33.8059C96.2364 32.8649 95.916 31.8193 95.916 30.6692C95.916 29.5539 96.2008 28.5084 96.8061 27.5325C97.3758 26.5567 98.1946 25.7899 99.2271 25.2671C100.188 24.7443 101.363 24.4655 102.716 24.4655ZM98.337 30.6692C98.337 31.4708 98.5151 32.2027 98.9067 32.8301C99.2627 33.4574 99.7968 33.9802 100.473 34.3287C101.15 34.6772 101.897 34.8515 102.716 34.8515C103.998 34.8515 105.031 34.4681 105.849 33.7014C106.668 32.9346 107.06 31.9239 107.06 30.7041C107.06 29.9025 106.882 29.1706 106.49 28.5432C106.134 27.9159 105.6 27.3931 104.924 27.0446C104.247 26.6961 103.5 26.5218 102.681 26.5218C101.862 26.5218 101.079 26.6961 100.438 27.0446C99.7612 27.3931 99.2627 27.881 98.9067 28.5432C98.5151 29.1357 98.337 29.8676 98.337 30.6692Z" fill="white"/>
<path d="M119.521 24.6409V26.4532H114.109V29.346H116.673C117.563 29.346 118.346 29.4854 119.058 29.7991C119.734 30.1127 120.268 30.531 120.66 31.0886C121.016 31.6463 121.23 32.2736 121.23 32.9707C121.23 34.0859 120.838 34.9921 120.019 35.6543C119.2 36.3165 118.132 36.665 116.815 36.665H111.724V24.6409H119.521ZM116.423 34.8876C117.135 34.8876 117.669 34.7133 118.097 34.3648C118.524 34.0162 118.737 33.5632 118.737 33.0055C118.737 32.4479 118.524 31.9948 118.097 31.6463C117.669 31.3326 117.1 31.1583 116.352 31.1583H114.145V34.8876H116.423V34.8876Z" fill="white"/>
<path d="M144.586 24.6409V26.4532H138.996V29.6248H144.336V31.4371H138.996V34.8527H144.692V36.665H136.61V24.6409H144.586Z" fill="white"/>
<path d="M177.092 24.6409V29.7297H183.501V24.6409H185.887V36.7007H183.501V31.6119H177.092V36.7007H174.707V24.6409H177.092Z" fill="white"/>
<path d="M196.567 24.6409V26.4532H190.977V29.6248H196.318V31.4371H190.977V34.8527H196.674V36.665H188.592V24.6409H196.567Z" fill="white"/>
<path d="M201.302 24.6409V29.7297H207.711V24.6409H210.097V36.7007H207.711V31.6119H201.302V36.7007H198.917V24.6409H201.302Z" fill="white"/>
<path d="M215.223 24.6409V29.7297H221.632V24.6409H224.017V36.7007H221.632V31.6119H215.223V36.7007H212.838V24.6409H215.223Z" fill="white"/>
<path d="M248.904 24.6418V36.6995H246.519V31.8555H246.02C245.237 31.8555 244.596 32.0646 244.062 32.4479C243.528 32.8312 243.03 33.4585 242.602 34.3297L241.321 36.6995H238.579L239.968 34.2252C240.395 33.4237 240.822 32.7964 241.249 32.3085C241.677 31.8206 242.139 31.4721 242.638 31.2282C240.858 30.7055 239.968 29.6949 239.968 28.1615C239.968 27.0463 240.359 26.1751 241.178 25.5479C241.961 24.9206 243.065 24.6069 244.383 24.6069H248.904V24.6418ZM242.424 28.2312C242.424 28.7888 242.638 29.2418 243.03 29.5555C243.457 29.904 244.026 30.0433 244.739 30.0433H246.519V26.4191H244.739C243.991 26.4191 243.421 26.5933 243.03 26.907C242.638 27.2206 242.424 27.6736 242.424 28.2312Z" fill="white"/>
<path d="M106.597 45.8638V47.676H102.218V57.9224H99.8324V47.676H95.4531V45.8638H106.597Z" fill="white"/>
<path d="M114.216 45.7258C115.498 45.7258 116.637 45.9698 117.67 46.4925C118.702 47.0153 119.521 47.7471 120.127 48.723C120.732 49.6988 121.052 50.7443 121.052 51.9292C121.052 53.0444 120.767 54.0899 120.162 55.0657C119.557 56.0415 118.774 56.7733 117.741 57.2961C116.709 57.8189 115.534 58.0977 114.252 58.0977C112.97 58.0977 111.831 57.8189 110.763 57.2961C109.73 56.7385 108.911 56.0066 108.306 55.0657C107.736 54.1247 107.416 53.0792 107.416 51.9292C107.416 50.814 107.701 49.7685 108.306 48.7927C108.876 47.8168 109.695 47.0501 110.727 46.5274C111.688 46.0046 112.863 45.7258 114.216 45.7258ZM109.837 51.9292C109.837 52.7307 110.015 53.4626 110.407 54.0899C110.763 54.7172 111.297 55.2399 111.973 55.5884C112.65 55.9369 113.397 56.1112 114.216 56.1112C115.498 56.1112 116.531 55.7278 117.349 54.9611C118.168 54.1944 118.56 53.1838 118.56 51.964C118.56 51.1625 118.382 50.4306 117.99 49.8033C117.634 49.176 117.1 48.6533 116.424 48.3047C115.747 47.9562 115 47.782 114.181 47.782C113.362 47.782 112.579 47.9562 111.938 48.3047C111.261 48.6533 110.763 49.1412 110.407 49.8033C110.015 50.3958 109.837 51.1276 109.837 51.9292Z" fill="white"/>
<path d="M127.995 45.8638C129.134 45.8638 130.095 46.1774 130.807 46.8397C131.519 47.5019 131.875 48.3384 131.875 49.384C131.875 50.4296 131.519 51.2661 130.772 51.9283C130.024 52.5905 129.063 52.9042 127.888 52.9042H125.609V57.958H123.224V45.8986H127.995V45.8638ZM127.425 51.057C128.066 51.057 128.564 50.9176 128.92 50.6387C129.276 50.3599 129.454 49.9417 129.454 49.384C129.454 48.2687 128.707 47.711 127.247 47.711H125.609V51.057H127.425Z" fill="white"/>
<path d="M148.929 45.7258C150.211 45.7258 151.35 45.9698 152.383 46.4925C153.415 47.0153 154.234 47.7471 154.839 48.723C155.445 49.6988 155.765 50.7443 155.765 51.9292C155.765 53.0444 155.48 54.0899 154.875 55.0657C154.27 56.0415 153.486 56.7733 152.454 57.2961C151.421 57.8189 150.247 58.0977 148.965 58.0977C147.683 58.0977 146.544 57.8189 145.476 57.2961C144.443 56.7385 143.624 56.0066 143.019 55.0657C142.449 54.1247 142.129 53.0792 142.129 51.9292C142.129 50.814 142.414 49.7685 143.019 48.7927C143.589 47.8168 144.408 47.0501 145.44 46.5274C146.437 46.0046 147.612 45.7258 148.929 45.7258ZM144.586 51.9292C144.586 52.7307 144.764 53.4626 145.155 54.0899C145.511 54.7172 146.045 55.2399 146.722 55.5884C147.398 55.9369 148.146 56.1112 148.965 56.1112C150.247 56.1112 151.279 55.7278 152.098 54.9611C152.917 54.1944 153.308 53.1838 153.308 51.964C153.308 51.1625 153.13 50.4306 152.739 49.8033C152.383 49.176 151.849 48.6533 151.172 48.3047C150.496 47.9562 149.748 47.782 148.929 47.782C148.11 47.782 147.327 47.9562 146.686 48.3047C146.01 48.6533 145.511 49.1412 145.155 49.8033C144.764 50.3958 144.586 51.1276 144.586 51.9292Z" fill="white"/>
<path d="M162.494 45.8638C163.634 45.8638 164.559 46.1426 165.271 46.7351C165.983 47.3275 166.339 48.0246 166.339 48.8958C166.339 49.4535 166.197 49.9414 165.877 50.3596C165.592 50.7778 165.165 51.1263 164.595 51.3703V51.4748C165.449 51.6491 166.126 52.0325 166.589 52.5901C167.052 53.1477 167.301 53.8099 167.301 54.5766C167.301 55.2388 167.123 55.8313 166.767 56.354C166.411 56.8768 165.948 57.2602 165.307 57.539C164.702 57.8178 163.954 57.9224 163.1 57.9224H157.973V45.8638H162.494V45.8638ZM161.853 50.8824C162.494 50.8824 162.993 50.743 163.349 50.4293C163.705 50.1505 163.883 49.7323 163.883 49.2095C163.883 48.7564 163.705 48.3731 163.384 48.0943C163.064 47.8154 162.601 47.676 162.067 47.676H160.358V50.8824H161.853ZM162.423 56.1449C163.242 56.1449 163.847 56.0055 164.239 55.6919C164.666 55.3782 164.844 54.96 164.844 54.3675C164.844 53.8447 164.631 53.4614 164.239 53.1477C163.847 52.8341 163.278 52.6946 162.601 52.6946H160.358V56.1101H162.423V56.1449Z" fill="white"/>
<path d="M191.547 45.864V57.9224H189.161V53.0781H188.663C187.88 53.0781 187.239 53.2872 186.705 53.6706C186.171 54.0539 185.672 54.6812 185.245 55.5525L183.963 57.9224H181.222L182.61 55.448C183.037 54.6464 183.465 54.0191 183.892 53.5312C184.319 53.0432 184.782 52.6947 185.28 52.4508C183.5 51.928 182.61 50.9173 182.61 49.3839C182.61 48.2687 183.002 47.3974 183.821 46.7701C184.604 46.1428 185.708 45.8291 187.025 45.8291H191.547V45.864ZM185.031 49.4536C185.031 50.0112 185.245 50.4643 185.637 50.7779C186.064 51.1264 186.633 51.2658 187.345 51.2658H189.126V47.6413H187.345C186.598 47.6413 186.028 47.8156 185.637 48.1293C185.245 48.4778 185.031 48.896 185.031 49.4536Z" fill="white"/>
<path d="M206.643 45.8638V50.7084H206.75C207.284 50.7084 207.676 50.6039 207.961 50.4645C208.245 50.325 208.495 50.0811 208.744 49.7325C208.993 49.4188 209.242 48.9657 209.456 48.4081C209.776 47.6762 210.097 47.1185 210.382 46.8048C210.666 46.4911 211.022 46.2472 211.414 46.0729C211.806 45.9335 212.34 45.8638 212.945 45.8638C213.159 45.8638 213.372 45.8638 213.55 45.8986V47.7459C213.052 47.7459 212.696 47.7807 212.482 47.8853C212.269 47.955 212.055 48.1293 211.877 48.3384C211.699 48.5475 211.485 48.9309 211.272 49.4886C210.809 50.569 210.204 51.2661 209.456 51.5449C210.026 51.7889 210.56 52.1723 211.022 52.6602C211.485 53.183 211.984 53.915 212.518 54.8909L214.191 57.9232H211.557L210.026 55.1C209.67 54.4378 209.314 53.915 208.993 53.5316C208.673 53.1482 208.352 52.8694 207.996 52.73C207.64 52.5557 207.177 52.486 206.608 52.486V57.958H204.258V45.8986H206.643V45.8638Z" fill="white"/>
<path d="M221.845 45.7258C223.127 45.7258 224.266 45.9698 225.299 46.4925C226.331 47.0153 227.15 47.7471 227.755 48.723C228.361 49.6988 228.681 50.7443 228.681 51.9292C228.681 53.0444 228.396 54.0899 227.791 55.0657C227.186 56.0415 226.402 56.7733 225.37 57.2961C224.337 57.8189 223.163 58.0977 221.881 58.0977C220.599 58.0977 219.46 57.8189 218.392 57.2961C217.359 56.7385 216.54 56.0066 215.935 55.0657C215.365 54.1247 215.045 53.0792 215.045 51.9292C215.045 50.814 215.33 49.7685 215.935 48.7927C216.505 47.8168 217.324 47.0501 218.356 46.5274C219.317 46.0046 220.492 45.7258 221.845 45.7258ZM217.466 51.9292C217.466 52.7307 217.644 53.4626 218.036 54.0899C218.392 54.7172 218.926 55.2399 219.602 55.5884C220.279 55.9369 221.026 56.1112 221.845 56.1112C223.127 56.1112 224.159 55.7278 224.978 54.9611C225.797 54.1944 226.189 53.1838 226.189 51.964C226.189 51.1625 226.011 50.4306 225.619 49.8033C225.263 49.176 224.729 48.6533 224.053 48.3047C223.376 47.9562 222.628 47.782 221.81 47.782C220.991 47.782 220.207 47.9562 219.567 48.3047C218.89 48.6533 218.392 49.1412 218.036 49.8033C217.644 50.3958 217.466 51.1276 217.466 51.9292Z" fill="white"/>
<path d="M257.236 45.8638V57.9224H254.815V47.7457H248.335V57.9224H245.949V45.8638H257.236Z" fill="white"/>
<path d="M275.501 45.8638V50.9521H281.909V45.8638H284.295V57.9224H281.909V52.8341H275.501V57.9224H273.115V45.8638H275.501Z" fill="white"/>
<path d="M289.314 45.8638V54.2981L296.969 45.8638H298.215V57.9228H295.865V50.2552L288.709 58.0273H287V45.8638H289.314Z" fill="white"/>
<path d="M163.456 24.6069V33.0401L171.111 24.6069H172.357V36.6643H170.007V28.9977L162.851 36.7688H161.142V24.6069H163.456Z" fill="white"/>
<path d="M310 45.864V57.9224H307.614V53.0781H307.116C306.333 53.0781 305.692 53.2872 305.158 53.6706C304.624 54.0539 304.125 54.6812 303.698 55.5525L302.416 57.9224H299.675L301.063 55.448C301.491 54.6464 301.918 54.0191 302.345 53.5312C302.772 53.0432 303.235 52.6947 303.734 52.4508C301.953 51.928 301.063 50.9173 301.063 49.3839C301.063 48.2687 301.455 47.3974 302.274 46.7701C303.057 46.1428 304.161 45.8291 305.478 45.8291H310V45.864ZM303.52 49.4536C303.52 50.0112 303.734 50.4643 304.125 50.7779C304.553 51.1264 305.122 51.2658 305.834 51.2658H307.614V47.6413H305.834C305.087 47.6413 304.517 47.8156 304.125 48.1293C303.734 48.4778 303.52 48.896 303.52 49.4536Z" fill="white"/>
<path d="M133.513 30.3558C132.694 29.6935 131.59 29.345 130.202 29.345H128.279V27.9507C128.279 25.9988 126.606 24.5349 124.399 24.5349H121.978V26.9399H124.399C125.253 26.9399 125.823 27.3582 125.823 27.9507V36.5949V36.6995H130.309C131.662 36.6995 132.73 36.3509 133.549 35.6887C134.368 35.0264 134.759 34.1202 134.759 33.0396C134.759 31.9243 134.332 31.018 133.513 30.3558ZM131.768 34.399C131.412 34.7476 130.95 34.9218 130.344 34.9218H128.279V31.1574H130.309C130.914 31.1574 131.377 31.3317 131.768 31.6803C132.125 32.0288 132.303 32.482 132.303 33.0396C132.303 33.5973 132.125 34.0504 131.768 34.399Z" fill="white"/>
<path d="M135.97 57.9224H133.514V49.2792C133.514 47.3275 135.187 45.8638 137.394 45.8638H141.311V48.2685H137.394C136.54 48.2685 135.97 48.6867 135.97 49.2792V57.9224Z" fill="white"/>
<path d="M157.724 34.7816H156.941V26.9752V24.5706H154.591H152.17C149.963 24.5706 148.289 26.0343 148.289 27.9858V34.7816H147.257H145.868V38.9287H148.218V36.7332H156.798V38.9287H159.148V34.7816H157.724ZM152.17 26.9752H154.591V34.7816H150.746V27.9858C150.746 27.3934 151.315 26.9752 152.17 26.9752Z" fill="white"/>
<path d="M231.423 24.4655C228.717 24.4655 226.51 26.8703 226.51 29.8328V36.6987H228.682V33.0043H234.165V36.6987H236.336V29.8328C236.336 26.8703 234.129 24.4655 231.423 24.4655ZM228.717 31.1223V29.8328C228.717 28.0204 229.928 26.5915 231.459 26.5915C232.954 26.5915 234.2 28.0553 234.2 29.8328V31.1223H228.717Z" fill="white"/>
<path d="M174.529 45.8291C171.823 45.8291 169.615 48.2339 169.615 51.1962V58.062H171.787V54.3677H177.27V58.062H179.442V51.1962C179.406 48.2339 177.234 45.8291 174.529 45.8291ZM171.787 52.4858V51.1962C171.787 49.384 172.998 47.9551 174.529 47.9551C176.059 47.9551 177.27 49.4188 177.27 51.1962V52.4858H171.787Z" fill="white"/>
<path d="M265.032 45.8291C262.327 45.8291 260.119 48.2339 260.119 51.1962V58.062H262.291V54.3677H267.774V58.062H269.946V51.1962C269.91 48.2339 267.703 45.8291 265.032 45.8291ZM262.291 52.4858V51.1962C262.291 49.384 263.501 47.9551 265.032 47.9551C266.563 47.9551 267.774 49.4188 267.774 51.1962V52.4858H262.291Z" fill="white"/>
<path d="M241.107 45.7598C239.541 45.8295 238.152 47.7463 237.191 48.7919C236.194 47.6766 234.663 45.7598 232.99 45.7598H230.854V57.958H233.239V49.3844V48.2691C234.734 48.3737 235.909 50.7088 235.909 52.0331L235.945 53.3575H238.437L238.473 52.0331C238.473 50.7785 239.505 48.5479 240.822 48.304V49.3844V57.958H243.208V45.7598H241.107V45.7598Z" fill="white"/>
<path d="M78.5058 44.436C76.4764 41.7873 73.7705 39.975 70.5306 39.0689C71.9547 38.2325 73.3077 37.1869 74.5182 35.9671C78.0429 32.4123 80.0723 27.7771 80.0723 23.2116H76.3696C76.3696 26.8361 74.7318 30.5652 71.8835 33.423C69.3913 35.9323 66.2938 37.4658 63.0182 37.9188V22.8979H55.6839C49.6313 22.8979 45.5013 24.6057 43.6143 25.6163C41.7273 24.6405 37.5973 22.8979 31.5803 22.8979H17.4813V22.9328C7.79717 23.1768 0 30.9486 0 40.4978C0 50.1864 8.0464 58.0977 17.9798 58.0977C27.9132 58.0977 35.9596 50.2213 35.9596 40.4978C35.9596 34.8868 33.2537 29.903 29.0881 26.6967H31.6159C36.7428 26.6967 40.232 28.1256 41.7273 28.8924V57.2612H45.6081V28.8924C47.1035 28.1256 50.5926 26.6967 55.7195 26.6967H59.1731V57.2612H63.0538V42.3798H65.5817C69.7829 42.3798 73.0584 43.8784 75.3015 46.8059C77.3309 49.4546 78.4346 53.1488 78.4346 57.2612H82.4578C82.4578 52.3124 81.0692 47.7469 78.5058 44.436ZM32.0432 40.5327C32.0432 48.1302 25.7413 54.3337 17.9442 54.3337C10.147 54.3337 3.84518 48.1651 3.84518 40.5327C3.84518 32.9002 10.147 26.7316 17.9442 26.7316C25.7413 26.7316 32.0432 32.9351 32.0432 40.5327Z" fill="white"/>
<path d="M32.8268 20.3542C35.8531 22.306 39.5915 23.5259 42.5466 23.5259H44.3268C47.2819 23.5259 51.0202 22.306 54.0465 20.3542C57.5357 18.0888 59.7787 14.7777 59.8855 11.6758L59.9567 9.86344L58.1053 9.72403C55.8267 9.54976 52.3732 9.8983 49.3825 10.7348C48.5992 6.97063 45.4305 2.61399 45.0388 2.09119L43.5079 0L41.9413 2.05634C41.5497 2.57913 38.2742 6.90092 37.5621 10.6999C34.5714 9.86344 31.1534 9.54976 28.8748 9.68918L27.0234 9.82859L27.0946 11.641C27.1302 14.7777 29.3377 18.0888 32.8268 20.3542ZM51.9103 17.1826C50.771 17.9145 49.6317 18.4722 48.528 18.8556C49.0264 17.6357 49.3825 16.2067 49.5249 14.6732C51.3051 14.0458 53.5125 13.6624 55.3995 13.523C54.7942 14.7429 53.6549 16.0673 51.9103 17.1826ZM41.2649 11.8849C41.3717 10.3514 42.4042 8.3299 43.4367 6.69181C44.4336 8.36476 45.4661 10.4211 45.6441 11.9546C46.0001 15.0217 45.0744 18.2979 43.5079 19.7269C41.2293 17.2523 41.1224 13.8018 41.2649 11.8849ZM37.4197 14.6732C37.5621 16.1719 37.9181 17.6008 38.4878 18.8904C37.3841 18.507 36.1736 17.9145 34.9986 17.1826C33.2897 16.0673 32.1147 14.7429 31.5095 13.523C33.3965 13.6624 35.6395 14.0458 37.4197 14.6732Z" fill="white"/>
</svg>
