<svg width="41" height="84" viewBox="0 0 41 84" fill="none" xmlns="http://www.w3.org/2000/svg">
<path d="M31.12 84C30.32 84 29.64 83.76 29.08 83.28C28.6 82.72 28.36 82.04 28.36 81.24V14.04L8.44 29.4C7.8 29.88 7.12 30.08 6.4 30C5.68 29.92 5.08 29.56 4.6 28.92L1.48 24.96C1 24.24 0.8 23.52 0.88 22.8C1.04 22.08 1.44 21.48 2.08 21L28.24 0.839998C28.8 0.439998 29.32 0.199996 29.8 0.119993C30.28 0.0399938 30.8 -5.72205e-06 31.36 -5.72205e-06H37.48C38.28 -5.72205e-06 38.92 0.279995 39.4 0.839998C39.96 1.32 40.24 1.96 40.24 2.75999V81.24C40.24 82.04 39.96 82.72 39.4 83.28C38.92 83.76 38.28 84 37.48 84H31.12Z" fill="white"/>
</svg>
