<svg width="60" height="86" viewBox="0 0 60 86" fill="none" xmlns="http://www.w3.org/2000/svg">
<path d="M3.64 86C2.84 86 2.16 85.76 1.6 85.28C1.12 84.72 0.88 84.04 0.88 83.24V79.4C0.88 78.68 1.08 77.88 1.48 77C1.88 76.12 2.68 75.16 3.88 74.12L29.32 48.68C33.4 45.24 36.6 42.32 38.92 39.92C41.32 37.44 43 35.08 43.96 32.84C45 30.6 45.52 28.28 45.52 25.88C45.52 21.32 44.24 17.72 41.68 15.08C39.12 12.36 35.32 11 30.28 11C27.08 11 24.32 11.68 22 13.04C19.68 14.32 17.88 16.12 16.6 18.44C15.32 20.68 14.44 23.24 13.96 26.12C13.8 27.16 13.36 27.88 12.64 28.28C12 28.68 11.4 28.88 10.84 28.88H4.6C3.88 28.88 3.28 28.68 2.8 28.28C2.32 27.8 2.08 27.24 2.08 26.6C2.16 23.56 2.8 20.52 4 17.48C5.2 14.36 6.96 11.56 9.28 9.08C11.68 6.52 14.6 4.48 18.04 2.96C21.56 1.44 25.64 0.679997 30.28 0.679997C36.6 0.679997 41.76 1.84 45.76 4.16C49.84 6.39999 52.84 9.39999 54.76 13.16C56.68 16.92 57.64 21.04 57.64 25.52C57.64 29.04 57.04 32.28 55.84 35.24C54.64 38.12 52.88 40.96 50.56 43.76C48.32 46.48 45.52 49.28 42.16 52.16L19.12 75.56H56.56C57.44 75.56 58.12 75.8 58.6 76.28C59.16 76.76 59.44 77.44 59.44 78.32V83.24C59.44 84.04 59.16 84.72 58.6 85.28C58.12 85.76 57.44 86 56.56 86H3.64Z" fill="white"/>
</svg>
