<svg width="68" height="84" viewBox="0 0 68 84" fill="none" xmlns="http://www.w3.org/2000/svg">
<path d="M45.12 84C44.32 84 43.64 83.76 43.08 83.28C42.6 82.72 42.36 82.04 42.36 81.24V63.96H3.48C2.68 63.96 2 63.72 1.44 63.24C0.96 62.68 0.72 62 0.72 61.2V56.4C0.72 56.08 0.8 55.6 0.96 54.96C1.2 54.24 1.56 53.52 2.04 52.8L38.04 2.04C39 0.679995 40.48 -5.72205e-06 42.48 -5.72205e-06H51.12C51.92 -5.72205e-06 52.56 0.279995 53.04 0.839998C53.6 1.32 53.88 1.96 53.88 2.75999V53.52H64.68C65.56 53.52 66.24 53.8 66.72 54.36C67.28 54.84 67.56 55.48 67.56 56.28V61.2C67.56 62 67.28 62.68 66.72 63.24C66.24 63.72 65.6 63.96 64.8 63.96H53.88V81.24C53.88 82.04 53.6 82.72 53.04 83.28C52.56 83.76 51.92 84 51.12 84H45.12ZM13.56 53.76H42.48V12.6L13.56 53.76Z" fill="white"/>
</svg>
