<svg width="61" height="86" viewBox="0 0 61 86" fill="none" xmlns="http://www.w3.org/2000/svg">
<path d="M30.04 85.2C23.72 85.2 18.36 84.12 13.96 81.96C9.64 79.72 6.32 76.84 4 73.32C1.76 69.8 0.56 66.08 0.4 62.16C0.32 61.44 0.52 60.88 1 60.48C1.48 60 2.08 59.76 2.8 59.76H9.28C10 59.76 10.64 59.96 11.2 60.36C11.76 60.68 12.2 61.36 12.52 62.4C13.32 65.36 14.6 67.8 16.36 69.72C18.2 71.56 20.28 72.92 22.6 73.8C25 74.6 27.48 75 30.04 75C33.48 75 36.6 74.32 39.4 72.96C42.28 71.52 44.56 69.44 46.24 66.72C47.92 63.92 48.76 60.56 48.76 56.64C48.76 53.04 47.92 49.96 46.24 47.4C44.64 44.76 42.4 42.76 39.52 41.4C36.72 39.96 33.56 39.24 30.04 39.24C27.4 39.24 25.24 39.56 23.56 40.2C21.88 40.84 20.44 41.6 19.24 42.48C18.12 43.36 17.08 44.12 16.12 44.76C15.24 45.4 14.24 45.72 13.12 45.72H6.88C6.16 45.72 5.52 45.48 4.96 45C4.4 44.44 4.16 43.8 4.24 43.08L8.08 3C8.16 2.04 8.44 1.32 8.92 0.839998C9.48 0.279995 10.2 -5.72205e-06 11.08 -5.72205e-06H52.96C53.76 -5.72205e-06 54.4 0.279995 54.88 0.839998C55.44 1.32 55.72 1.96 55.72 2.75999V7.44C55.72 8.32 55.44 9 54.88 9.47999C54.4 9.96 53.76 10.2 52.96 10.2H18.4L16.12 33.84C17.32 33.12 19.12 32.28 21.52 31.32C24 30.28 27.4 29.76 31.72 29.76C35.72 29.76 39.44 30.36 42.88 31.56C46.4 32.76 49.48 34.52 52.12 36.84C54.84 39.16 56.96 42 58.48 45.36C60 48.64 60.76 52.44 60.76 56.76C60.76 62.84 59.44 68 56.8 72.24C54.16 76.48 50.52 79.72 45.88 81.96C41.24 84.12 35.96 85.2 30.04 85.2Z" fill="white"/>
</svg>
