<svg width="62" height="86" viewBox="0 0 62 86" fill="none" xmlns="http://www.w3.org/2000/svg">
<path d="M30.76 85.2C25.72 85.2 21.32 84.6 17.56 83.4C13.8 82.12 10.64 80.44 8.08 78.36C5.52 76.28 3.56 74 2.2 71.52C0.92 68.96 0.24 66.4 0.16 63.84C0.16 63.12 0.4 62.56 0.88 62.16C1.36 61.68 1.96 61.44 2.68 61.44H8.56C9.28 61.44 9.92 61.64 10.48 62.04C11.12 62.36 11.6 63.04 11.92 64.08C12.72 66.96 14.08 69.2 16 70.8C18 72.4 20.28 73.52 22.84 74.16C25.48 74.72 28.12 75 30.76 75C36.28 75 40.76 73.68 44.2 71.04C47.64 68.4 49.36 64.52 49.36 59.4C49.36 54.2 47.8 50.48 44.68 48.24C41.56 46 37.24 44.88 31.72 44.88H20.32C19.52 44.88 18.84 44.64 18.28 44.16C17.8 43.68 17.56 43 17.56 42.12V38.88C17.56 38.16 17.68 37.56 17.92 37.08C18.24 36.52 18.56 36.04 18.88 35.64L42.16 10.2H6.76C5.96 10.2 5.28 9.96 4.72 9.47999C4.24 9 4 8.32 4 7.44V2.87999C4 1.99999 4.24 1.32 4.72 0.839998C5.28 0.279995 5.96 -5.72205e-06 6.76 -5.72205e-06H54.64C55.52 -5.72205e-06 56.2 0.279995 56.68 0.839998C57.24 1.32 57.52 1.99999 57.52 2.87999V7.19999C57.52 7.76 57.36 8.28 57.04 8.76C56.8 9.16 56.52 9.56 56.2 9.95999L33.04 35.76L34.96 35.88C40.24 36.04 44.84 37 48.76 38.76C52.76 40.52 55.84 43.16 58 46.68C60.24 50.12 61.36 54.48 61.36 59.76C61.36 65.12 60.04 69.68 57.4 73.44C54.76 77.2 51.12 80.12 46.48 82.2C41.92 84.2 36.68 85.2 30.76 85.2Z" fill="white"/>
</svg>
