<svg width="86" height="73" viewBox="0 0 86 73" fill="none" xmlns="http://www.w3.org/2000/svg">
<path d="M74 15.3034C50.5636 15.3034 27.2195 15.3034 3.69077 15.3034C3.69077 15.6631 3.69077 15.9329 3.69077 16.2028C3.69077 24.9268 3.69077 33.6509 3.69077 42.285C3.69077 45.7027 5.7207 47.6813 9.13467 47.6813C17.6234 47.6813 37.1846 47.8612 45.6733 47.9511C46.0424 47.9511 46.5038 47.9511 46.8728 48.0411C47.7033 48.3109 48.1646 49.0304 48.0723 49.8398C47.9801 50.6493 47.3342 51.3688 46.4115 51.4587C46.227 51.4587 45.9501 51.4587 45.6733 51.4587C37.0923 51.4587 17.4389 51.2789 8.85786 51.1889C4.33666 51.1889 0.922692 48.4008 0.092268 44.1737C-1.40929e-06 43.4542 0 42.7347 0 42.1051C0 33.0213 0 23.8476 0 14.7637C0 12.7851 0 10.8064 0 8.82779C0.184539 4.42079 3.78304 1.00312 8.21197 0.823242C8.48878 0.823242 8.76559 0.823242 8.95013 0.823242C28.788 0.823242 48.626 0.823242 68.4639 0.823242C72.3392 0.823242 75.1995 2.44214 76.7681 5.85981C77.3217 6.93907 77.5063 8.28815 77.5063 9.5473C77.5985 15.4833 77.5063 30.9527 77.5063 36.8887C77.5063 38.2377 76.8604 38.9573 75.8454 39.0472C74.6459 39.1371 73.8155 38.3277 73.8155 36.9786C73.8155 34.1905 73.8155 21.9588 73.8155 19.1707C74 17.9116 74 16.6525 74 15.3034ZM74 11.6159C74 10.8064 74 9.99699 74 9.18754C73.9078 6.39944 71.7856 4.42079 69.0175 4.42079C48.9028 4.42079 28.8803 4.42079 8.76559 4.42079C6.27432 4.42079 4.33666 5.94975 3.87531 8.28815C3.69077 9.36742 3.78304 10.4467 3.69077 11.6159C27.1272 11.6159 50.5636 11.6159 74 11.6159Z" fill="#14320A"/>
<path d="M64.7734 33.291C76.0302 33.291 85.0726 42.195 85.0726 53.1675C85.0726 64.1401 75.938 72.9541 64.6811 72.9541C53.4242 72.9541 44.3818 64.0501 44.3818 53.0776C44.4741 42.105 53.5165 33.291 64.7734 33.291ZM81.3819 53.0776C81.3819 44.0837 73.908 36.8886 64.7734 36.8886C55.5464 36.8886 48.1649 44.1736 48.1649 53.0776C48.1649 62.0715 55.6387 69.2666 64.7734 69.2666C73.908 69.3565 81.3819 62.0715 81.3819 53.0776Z" fill="white"/>
<path d="M16.701 38.6873C19.0078 38.6873 21.3145 38.6873 23.6212 38.6873C25.0053 38.6873 25.8357 39.3168 25.928 40.4861C25.928 41.5654 25.0976 42.2849 23.7135 42.2849C19.0078 42.2849 14.2098 42.2849 9.50404 42.2849C8.58134 42.2849 7.93546 41.9251 7.56638 41.1157C7.28957 40.3961 7.38184 39.5867 8.12 39.137C8.48908 38.8671 9.13496 38.6873 9.59631 38.6873C11.9953 38.6873 14.302 38.6873 16.701 38.6873Z" fill="#14320A"/>
<path d="M64.6805 56.0457C66.6181 54.1569 68.3713 52.3582 70.2166 50.6493C70.4934 50.3795 70.7703 50.1097 71.0471 49.9298C71.7852 49.3901 72.8002 49.4801 73.4461 50.1097C73.9997 50.7392 74.0919 51.6386 73.6306 52.3582C73.4461 52.538 73.2615 52.7179 73.077 52.8978C70.7703 55.1463 68.5558 57.3048 66.2491 59.5533C65.1418 60.6326 64.1269 60.6326 63.0196 59.5533C61.3588 57.9344 59.6057 56.2256 57.9448 54.6066C57.1144 53.7972 57.0221 52.8079 57.668 51.9984C58.4062 51.099 59.6057 51.099 60.5284 51.9984C62.0047 53.2575 63.2964 54.6066 64.6805 56.0457Z" fill="white"/>
</svg>
