<svg width="40" height="72" viewBox="0 0 40 72" fill="none" xmlns="http://www.w3.org/2000/svg">
<path d="M34.0748 70H5.91253C3.79555 70 2.06348 68.2679 2.06348 66.1509V5.84906C2.06348 3.73208 3.79555 2 5.91253 2H34.0748C36.1918 2 37.9239 3.73208 37.9239 5.84906V66.1509C37.9239 68.2038 36.1918 70 34.0748 70Z" stroke="white" stroke-width="3" stroke-miterlimit="10" stroke-linejoin="round"/>
<path d="M2 9.44151H37.9245" stroke="white" stroke-width="3" stroke-miterlimit="10" stroke-linejoin="round"/>
<path d="M2 58.8377H37.9245" stroke="white" stroke-width="3" stroke-miterlimit="10" stroke-linejoin="round"/>
<path d="M19.9615 66.6C21.2724 66.6 22.3351 65.5373 22.3351 64.2264C22.3351 62.9155 21.2724 61.8528 19.9615 61.8528C18.6506 61.8528 17.5879 62.9155 17.5879 64.2264C17.5879 65.5373 18.6506 66.6 19.9615 66.6Z" stroke="white" stroke-width="3" stroke-miterlimit="10" stroke-linejoin="round"/>
<path d="M20.6031 40.9396C26.3781 40.9396 31.0597 36.2581 31.0597 30.483C31.0597 24.708 26.3781 20.0264 20.6031 20.0264C14.8281 20.0264 10.1465 24.708 10.1465 30.483C10.1465 36.2581 14.8281 40.9396 20.6031 40.9396Z" stroke="#14320A" stroke-width="3" stroke-miterlimit="10" stroke-linejoin="round"/>
<path d="M20.6025 28.4302V51.2679" stroke="#14320A" stroke-width="3" stroke-miterlimit="10" stroke-linejoin="round"/>
<path d="M20.6025 36.4491L25.6063 31.5095" stroke="#14320A" stroke-width="3" stroke-miterlimit="10" stroke-linejoin="round"/>
</svg>
