<svg width="92" height="71" viewBox="0 0 92 71" fill="none" xmlns="http://www.w3.org/2000/svg">
<path d="M61.0836 40.9937C62.0328 40.9937 68.1077 38.1759 68.1077 35.6308C68.1077 33.0858 62.5074 19.0879 61.0836 19.0879C59.5649 19.0879 54.0596 33.1767 54.0596 35.6308C54.0596 38.085 60.1344 40.9937 61.0836 40.9937Z" stroke="white" stroke-width="3" stroke-miterlimit="10" stroke-linejoin="round"/>
<path d="M61.083 30.0869V40.9941" stroke="white" stroke-width="3" stroke-miterlimit="10" stroke-linejoin="round"/>
<path d="M38.9672 28.1777C46.5161 28.1777 52.6356 22.3176 52.6356 15.0889C52.6356 7.86009 46.5161 2 38.9672 2C31.4184 2 25.2988 7.86009 25.2988 15.0889C25.2988 22.3176 31.4184 28.1777 38.9672 28.1777Z" stroke="white" stroke-width="3" stroke-miterlimit="10" stroke-linejoin="round"/>
<path d="M38.9668 12.4529V41.9026" stroke="white" stroke-width="3" stroke-miterlimit="10" stroke-linejoin="round"/>
<path d="M38.9668 22.5427L45.5162 16.2708" stroke="white" stroke-width="3" stroke-miterlimit="10" stroke-linejoin="round"/>
<path d="M1 44.4483C1 44.4483 17.2312 36.4495 24.0654 36.4495C30.8996 36.4495 57.3821 47.9024 57.3821 47.9024C57.3821 47.9024 61.9382 51.1747 60.7043 55.1741C59.3754 59.2645 55.3888 58.6282 52.3514 57.8101C49.314 56.992 33.5573 52.0836 33.5573 52.0836" stroke="#14320A" stroke-width="3" stroke-miterlimit="10" stroke-linejoin="round"/>
<path d="M53.3958 46.0839C53.3958 46.0839 74.5628 37.3578 79.6884 35.2672C84.8141 33.1766 92.6924 36.0853 89.0855 43.4479C89.0855 43.4479 57.857 69.4443 51.0228 69.4443C44.1886 69.4443 25.3945 59.9911 18.0857 59.9911C10.7769 59.9911 2.3291 67.4446 2.3291 67.4446" stroke="#14320A" stroke-width="3" stroke-miterlimit="10" stroke-linejoin="round"/>
</svg>
