<svg width="116" height="70" viewBox="0 0 116 70" fill="none" xmlns="http://www.w3.org/2000/svg">
<path d="M35.2925 33.7611C42.5113 33.7611 48.3633 28.1046 48.3633 21.127C48.3633 14.1494 42.5113 8.49292 35.2925 8.49292C28.0737 8.49292 22.2217 14.1494 22.2217 21.127C22.2217 28.1046 28.0737 33.7611 35.2925 33.7611Z" stroke="#6C9A31" stroke-width="3" stroke-miterlimit="10" stroke-linejoin="round"/>
<path d="M35.2925 18.6345V48.6051" stroke="#6C9A31" stroke-width="3" stroke-miterlimit="10" stroke-linejoin="round"/>
<path d="M53.6387 40.673V48.9445" stroke="#6C9A31" stroke-width="3" stroke-miterlimit="10" stroke-linejoin="round"/>
<path d="M35.2925 28.3787L41.5641 22.3168" stroke="#6C9A31" stroke-width="3" stroke-miterlimit="10" stroke-linejoin="round"/>
<path d="M47.6016 38.9734C45.1985 38.9734 43.0298 39.9932 41.5645 41.5795C43.0298 43.1658 45.1985 44.1855 47.6016 44.1855C50.0048 44.1855 52.1735 43.1658 53.6388 41.5795C52.1148 39.9932 50.0048 38.9734 47.6016 38.9734Z" stroke="#6C9A31" stroke-width="3" stroke-miterlimit="10" stroke-linejoin="round"/>
<path d="M59.6759 38.9734C57.2727 38.9734 55.104 39.9932 53.6387 41.5795C55.104 43.1658 57.2727 44.1855 59.6759 44.1855C62.079 44.1855 64.2477 43.1658 65.7131 41.5795C64.1891 39.9932 62.079 38.9734 59.6759 38.9734Z" stroke="#6C9A31" stroke-width="3" stroke-miterlimit="10" stroke-linejoin="round"/>
<path d="M52.1147 35.7439C52.1147 37.0469 52.7009 38.2366 53.6387 39.0864C54.5765 38.2933 55.1627 37.1036 55.1627 35.7439C55.1627 34.4409 54.5765 33.2512 53.6387 32.4014C52.7009 33.2512 52.1147 34.4409 52.1147 35.7439Z" stroke="#6C9A31" stroke-width="3" stroke-miterlimit="10" stroke-linejoin="round"/>
<path d="M85.9344 2.09082H2V53.2502H85.9344V2.09082Z" stroke="#14320A" stroke-width="3" stroke-miterlimit="10" stroke-linejoin="round"/>
<path d="M13.7228 60.6157H7.45117V53.2505H84.6451V60.6157H43.9673" stroke="#14320A" stroke-width="3" stroke-miterlimit="10" stroke-linejoin="round"/>
<path d="M85.9346 22.8833H102.464L107.739 38.6333C107.739 38.6333 113.6 41.0128 113.6 43.279C113.6 45.5452 113.6 60.5587 113.6 60.5587H100.529" stroke="#14320A" stroke-width="3" stroke-miterlimit="10" stroke-linejoin="round"/>
<path d="M21.2838 67.9243C25.4597 67.9243 28.8449 64.6521 28.8449 60.6157C28.8449 56.5793 25.4597 53.3071 21.2838 53.3071C17.1079 53.3071 13.7227 56.5793 13.7227 60.6157C13.7227 64.6521 17.1079 67.9243 21.2838 67.9243Z" stroke="#14320A" stroke-width="3" stroke-miterlimit="10" stroke-linejoin="round"/>
<path d="M21.284 62.882C22.5789 62.882 23.6285 61.8673 23.6285 60.6157C23.6285 59.3641 22.5789 58.3495 21.284 58.3495C19.9891 58.3495 18.9395 59.3641 18.9395 60.6157C18.9395 61.8673 19.9891 62.882 21.284 62.882Z" stroke="#14320A" stroke-width="3" stroke-miterlimit="10" stroke-linejoin="round"/>
<path d="M36.4063 67.9243C40.5822 67.9243 43.9675 64.6521 43.9675 60.6157C43.9675 56.5793 40.5822 53.3071 36.4063 53.3071C32.2304 53.3071 28.8452 56.5793 28.8452 60.6157C28.8452 64.6521 32.2304 67.9243 36.4063 67.9243Z" stroke="#14320A" stroke-width="3" stroke-miterlimit="10" stroke-linejoin="round"/>
<path d="M36.406 62.882C37.7009 62.882 38.7505 61.8673 38.7505 60.6157C38.7505 59.3641 37.7009 58.3495 36.406 58.3495C35.1112 58.3495 34.0615 59.3641 34.0615 60.6157C34.0615 61.8673 35.1112 62.882 36.406 62.882Z" stroke="#14320A" stroke-width="3" stroke-miterlimit="10" stroke-linejoin="round"/>
<path d="M92.9684 67.9243C97.1443 67.9243 100.53 64.6521 100.53 60.6157C100.53 56.5793 97.1443 53.3071 92.9684 53.3071C88.7925 53.3071 85.4072 56.5793 85.4072 60.6157C85.4072 64.6521 88.7925 67.9243 92.9684 67.9243Z" stroke="#14320A" stroke-width="3" stroke-miterlimit="10" stroke-linejoin="round"/>
<path d="M92.9681 62.882C94.2629 62.882 95.3126 61.8673 95.3126 60.6157C95.3126 59.3641 94.2629 58.3495 92.9681 58.3495C91.6732 58.3495 90.6235 59.3641 90.6235 60.6157C90.6235 61.8673 91.6732 62.882 92.9681 62.882Z" stroke="#14320A" stroke-width="3" stroke-miterlimit="10" stroke-linejoin="round"/>
<path d="M104.574 29.2286H92.9683V38.0673H107.739" stroke="#14320A" stroke-width="3" stroke-miterlimit="10" stroke-linejoin="round"/>
<path d="M7.80273 48.9447H79.3698" stroke="#14320A" stroke-width="3" stroke-miterlimit="10" stroke-linejoin="round"/>
</svg>
