<svg width="66" height="56" viewBox="0 0 66 56" fill="none" xmlns="http://www.w3.org/2000/svg">
<path d="M18.5 54.9854V35.9022C27.5906 35.9022 35 28.3732 35 19.1359C35 9.89855 27.5906 2.36951 18.5 2.36951C9.40943 2.36951 2 9.89855 2 19.1359C2 24.577 4.55283 29.4488 8.53774 32.4857C8.53774 32.4857 9.78302 33.5613 11.5887 34.7634" stroke="white" stroke-width="3" stroke-miterlimit="10"/>
<path d="M12.986 26C12.854 26 12.746 25.958 12.662 25.874C12.59 25.79 12.554 25.688 12.554 25.568V16.244L9.818 18.35C9.71 18.422 9.602 18.452 9.494 18.44C9.386 18.416 9.29 18.35 9.206 18.242L8.45 17.27C8.378 17.162 8.348 17.048 8.36 16.928C8.384 16.808 8.45 16.712 8.558 16.64L12.59 13.526C12.662 13.466 12.734 13.43 12.806 13.418C12.878 13.406 12.956 13.4 13.04 13.4H14.624C14.744 13.4 14.846 13.442 14.93 13.526C15.014 13.61 15.056 13.712 15.056 13.832V25.568C15.056 25.688 15.014 25.79 14.93 25.874C14.846 25.958 14.744 26 14.624 26H12.986ZM17.574 26C17.454 26 17.352 25.958 17.268 25.874C17.184 25.79 17.142 25.688 17.142 25.568V24.65C17.142 24.542 17.166 24.416 17.214 24.272C17.274 24.116 17.4 23.96 17.592 23.804L20.436 20.978C21.228 20.354 21.864 19.826 22.344 19.394C22.836 18.95 23.19 18.548 23.406 18.188C23.634 17.816 23.748 17.45 23.748 17.09C23.748 16.55 23.598 16.112 23.298 15.776C23.01 15.44 22.548 15.272 21.912 15.272C21.492 15.272 21.138 15.362 20.85 15.542C20.562 15.71 20.334 15.938 20.166 16.226C20.01 16.514 19.902 16.832 19.842 17.18C19.818 17.336 19.752 17.444 19.644 17.504C19.536 17.564 19.428 17.594 19.32 17.594H17.718C17.61 17.594 17.52 17.558 17.448 17.486C17.376 17.414 17.34 17.33 17.34 17.234C17.352 16.718 17.46 16.22 17.664 15.74C17.868 15.248 18.162 14.816 18.546 14.444C18.942 14.06 19.422 13.754 19.986 13.526C20.55 13.298 21.186 13.184 21.894 13.184C22.89 13.184 23.712 13.352 24.36 13.688C25.02 14.024 25.512 14.48 25.836 15.056C26.172 15.632 26.34 16.28 26.34 17C26.34 17.564 26.232 18.086 26.016 18.566C25.8 19.034 25.488 19.49 25.08 19.934C24.672 20.366 24.18 20.81 23.604 21.266L21.048 23.858H26.178C26.31 23.858 26.412 23.9 26.484 23.984C26.568 24.056 26.61 24.158 26.61 24.29V25.568C26.61 25.688 26.568 25.79 26.484 25.874C26.412 25.958 26.31 26 26.178 26H17.574Z" fill="white"/>
<path d="M9 42.0797L19 49.0289" stroke="white" stroke-width="3" stroke-miterlimit="10"/>
<path d="M59 42.0797L52 45.0579" stroke="white" stroke-width="3" stroke-miterlimit="10"/>
<path d="M52 53.9926C53.5789 53.9926 64 48.8438 64 44.3386C64 39.8334 54.5263 14.2825 52 14.2825C49.4737 14.2825 40 39.8334 40 44.3386C40 48.8438 50.4211 53.9926 52 53.9926Z" stroke="white" stroke-width="3" stroke-miterlimit="10"/>
<path d="M52 34.1376V53.9927" stroke="white" stroke-width="3" stroke-miterlimit="10"/>
</svg>
