<svg width="522" height="399" viewBox="0 0 522 399" fill="none" xmlns="http://www.w3.org/2000/svg">
<line x1="154.5" y1="162" x2="154.5" y2="378" stroke="#6C9A31" stroke-width="5"/>
<line x1="245.768" y1="197.665" x2="171.744" y2="262.741" stroke="#6C9A31" stroke-width="5"/>
<line x1="91.927" y1="152.771" x2="155.291" y2="217.348" stroke="#6C9A31" stroke-width="5"/>
<path d="M94 195L124.5 187" stroke="#6C9A31" stroke-width="4"/>
<line x1="171.5" y1="162" x2="171.5" y2="378" stroke="#6C9A31" stroke-width="5"/>
<path d="M79.6881 255.711L43.1214 268L59.6978 233.074L21.2658 236.288L45.6553 206.341L7.61044 200.161L38.5109 176.995L3 161.88L38.5109 146.73L7.61044 123.564L45.6553 117.419L21.2658 87.4723L59.6978 90.6859L43.1214 55.7246L79.6881 68.0493L71.875 30.1569L104.465 50.8512L105.943 12.2171L132.585 40.1509L143.284 3L162.5 36.5488L181.716 3L192.415 40.1509L219.092 12.2171L220.57 50.8512L253.125 30.1569L245.347 68.0493L281.879 55.7599L265.337 90.6859L303.769 87.4723L279.345 117.419L317.39 123.564L286.524 146.73L322 161.88L286.524 176.995L317.39 200.161L279.345 206.341L303.734 236.288L265.337 233.074L281.879 268L245.347 255.711" stroke="#8AB357" stroke-width="5" stroke-linejoin="round"/>
<path d="M358.866 328.962L334.68 344.595" stroke="#6C9A31" stroke-width="5" stroke-linejoin="round"/>
<path d="M334.681 374.421C340.565 374.421 379.363 355.562 379.363 339.066C379.363 322.569 344.09 229 334.681 229C325.273 229 290 322.494 290 338.99C290 355.486 328.797 374.421 334.681 374.421Z" stroke="#6C9A31" stroke-width="5" stroke-linejoin="round"/>
<path d="M334.68 301.665V374.345" stroke="#6C9A31" stroke-width="5" stroke-linejoin="round"/>
<circle cx="460.5" cy="337.5" r="59" stroke="#6C9A31" stroke-width="5"/>
<path d="M432 331L459 377" stroke="#6C9A31" stroke-width="5"/>
<path d="M423 354L449 358.5" stroke="#6C9A31" stroke-width="5"/>
<path d="M466 379.5L479 299" stroke="#6C9A31" stroke-width="5"/>
</svg>
