<svg width="66" height="55" viewBox="0 0 66 55" fill="none" xmlns="http://www.w3.org/2000/svg">
<path d="M18.5 53.5976V34.7049C27.5906 34.7049 35 27.2511 35 18.106C35 8.96092 27.5906 1.50705 18.5 1.50705C9.40943 1.50705 2 8.96092 2 18.106C2 23.4928 4.55283 28.3159 8.53774 31.3225C8.53774 31.3225 9.78302 32.3874 11.5887 33.5775" stroke="#382100" stroke-width="3" stroke-miterlimit="10"/>
<path d="M9 40.8206L19 47.7005" stroke="#382100" stroke-width="3" stroke-miterlimit="10"/>
<path d="M59 40.8206L52 43.7692" stroke="#382100" stroke-width="3" stroke-miterlimit="10"/>
<path d="M52 52.6148C53.5789 52.6148 64 47.5174 64 43.0572C64 38.5969 54.5263 13.3011 52 13.3011C49.4737 13.3011 40 38.5969 40 43.0572C40 47.5174 50.4211 52.6148 52 52.6148Z" stroke="#382100" stroke-width="3" stroke-miterlimit="10"/>
<path d="M52 32.9579V52.6147" stroke="#382100" stroke-width="3" stroke-miterlimit="10"/>
</svg>
